<svg id="Layer_1" xmlns="http://www.w3.org/2000/svg" viewBox="0 0 124 124"><style>.st0{fill:#682ec6}</style><path class="st0" d="M67.8 123c-1.2 0-2.3-.1-3.3-.4-1.6-.4-2.9-.7-3.9-.9-.9-.2-1.7-.4-2.5-.6-.6-.2-1.2-.4-1.9-.6-1.1-.4-2.3-.9-4.2-1.3-1.1-.3-2.1-.5-2.9-.7-1.4-.3-2.4-.6-3.5-.9-.5-.2-1.1-.4-1.7-.7-1.1-.5-2.4-1-4.3-1.5-1.7-.4-3-.7-4.1-.9-.8-.1-1.6-.3-2.3-.5s-1.4-.4-2.3-.6c-1-.2-2.3-.5-3.9-.9-1.8-.5-3.7-1.3-5.5-2.2-1.6-.9-2.9-2.2-4.2-3.5l-.5-.5c-1.3-1.3-2.7-2.7-3.6-4.4-.9-1.6-1.6-3.4-2.2-5.5-.5-2-.8-3.3-1-4.4-.1-.7-.3-1.3-.4-1.9-.2-.7-.4-1.5-.6-2.3-.3-1-.6-2.2-1-3.9-.4-1.6-.7-2.8-.9-3.8-.2-1-.4-1.7-.6-2.5-.2-.6-.4-1.2-.6-1.9-.4-1.1-.8-2.4-1.3-4.4l-.5-2c-.5-1.9-.8-3.1-1.1-4.2-.2-.4-.3-.9-.5-1.4-.5-1.1-1-2.6-1.6-4.8-.5-1.9-.4-4.1-.3-6.2.1-1.8.3-4 .8-6 .6-2.1 1.6-3.9 2.7-5.5 1.2-1.8 2.4-3.4 3.8-4.8 1.8-1.8 2.8-3 3.7-4 .2-.3.5-.6.7-.8 1.1-1.3 2.3-2.5 4.6-4.8 1.7-1.7 3-2.7 4-3.4.4-.3.8-.6 1.1-.9 1.3-1.1 2.6-2.3 4.8-4.5 1.4-1.4 2.2-2.5 2.9-3.4.5-.6.8-1.1 1.3-1.6.6-.6 1.2-1.1 1.9-1.8.8-.7 1.8-1.5 3-2.7l.6-.5c1.2-1.2 2.5-2.5 4.2-3.5 1.9-1.1 4-1.8 5.7-2.2 2.1-.6 4.1-1 5.9-1.1.9-.1 1.9-.2 2.9-.2 1.3 0 2.4.1 3.3.3 2.5.6 4 1.1 5.3 1.6.3.1.7.2 1 .3.6.2 1.1.5 1.8.8 1.1.5 2.3 1 4.2 1.5 2 .5 3.3.6 4.5.6.6 0 1.2.1 1.8.2 1.7.3 3.3.6 6.4 1.4 1.6.4 2.8.7 3.8.9.9.2 1.7.4 2.5.6.7.2 1.3.5 2.1.8 1 .4 2.2.9 4 1.4l.4.1c1.7.4 3.6.9 5.3 2 1.6.9 2.8 2.2 4.1 3.5l.4.4c1.4 1.4 2.9 2.9 3.8 4.7.9 1.7 1.3 3.6 1.7 5.2l.1.4c.5 1.9.8 3.2 1.1 4.2.2.7.4 1.4.5 2 .2.6.3 1.2.6 1.9.3 1.1.8 2.4 1.3 4.3.7 2.9 1.2 4.6 1.7 6.2.2.8.3 1.5.5 2.4.2 1.1.4 2.3.8 4 .5 2 1 3.3 1.5 4.4.2.5.5 1.1.6 1.6.5 1.5.9 3.1 1.7 6.1v.2c.5 2.1.7 4.2.6 6.2-.1 2.1-.7 4.3-1.2 6s-1.2 3.9-2.4 5.7c-1.2 1.9-2.7 3.4-4 4.7l-2.1 2.1-2.5 2.5c-.7.8-1.4 1.5-2.4 2.4l-2.3 2.3c-2.3 2.3-3.4 3.5-4.6 4.7-.4.4-.8.9-1.2 1.5-.7 1-1.6 2.2-3.1 3.6-2 2.1-3.3 3.1-4.4 4.1l-1.2 1c-1.1.9-2.3 1.9-4.1 3.8-1.2 1.2-2.7 2-4.1 2.8-.3.2-.6.4-.9.5-.3.2-.6.4-.9.5-1.4.8-2.8 1.7-4.5 2.2-2 .5-4 .8-5.9 1-1.2.3-2.1.4-3 .4z"/><path class="st0" d="M38.6 3.2c.3.1.1-.2 0 0zm.9.5c.3 0 .1-.2 0 0zm-1.7.1c-.1-.3-.4.1 0 0zm.3-.1c.3.1.1-.1 0 0zm1.3.4c.3.1 0-.2 0 0zm1.9.2c-.2-.2-.3.3 0 0zm-.9.2c.3 0 0-.2 0 0zm28.8 1.7c-.1.1-.2.2-.2.4.3.2.6.5.8.8.4-.1.5 0 .8.1 0-.3.3-.4.2-.8-.3-.2-.4 0-.8-.1 0-.7-.5-.5-.4-1.3-.2 0-.2-.3-.5-.2-.7-1-.7 1.1.1 1.1zM50.9 4.8c0 .3.1.4.3.4 0-.3-.1-.4-.3-.4zm-13 .4c-.1.2.3-.2 0 0zm10.7 2.5c.2-.4.6-.3 1.1-.3.1-.3-.1-.5-.2-.8-.8.3-1.4-.3-2.2-.4-.1-.2-.1-.6-.3-.7-.3.1-.1.5-.2.7-.2 0-.3 0-.5.1 0 1.3 1.7.9 2.3 1.4zm-11.5-2c0 .1-.1.1 0 .2 0-.1.1-.2 0-.2zm-4.8.5c.3.1 0-.2 0 0zm36.4 0c-.3-.2-.5 0-.7.1v.4h.6c0-.2 0-.4.1-.5zM52.1 7v-.5c-.7-.3-1.1-.4-2-.4-.1.2 0 .1 0 .4.7.2 1.4.3 2 .5zm-15.9-.2c.4 0 .1-.2 0 0zm49.7.1v.4h.3c0-.3 0-.4-.3-.4zm-12.3.5c0-.2 0-.3-.1-.4-.3-.1-.3.1-.4.3.2 0 .3.2.5.1zm-37.4-.2c-.3-.1-.3.3 0 0zm2.1.1c0 .1 0 .2.1.3.1-.2 0-.3-.1-.3zm-.7.6c0-.1.1-.4-.1-.5-.1.1-.3.1-.5.1.1.7.3.3.6.4zm4-.3c-.2.2.2-.1 0 0zm30.3.7c.5.2 1-.1 1-.7-.5-.1-1 0-1 .7zm9.8-.6zm-43.4.1c-.1.2.2-.2 0 0zm43.2.3c-.1-.1.2-.2 0-.3-.1 0-.2.3 0 .3zm-46.4-.2c.1.2.2-.2 0 0zm2.5.1c-.1.1.1.3-.1.4.3 0 .2-.3.1-.4zm5.9.6v-.5c-.3 0-.3.1-.3.3.2 0 .1.2.3.2zm-6.7-.1c.2.1.1-.4 0-.3 0 .1.1.2 0 .3zm7.9.1c0-.2.1-.4-.1-.5-.1.2 0 .5.1.5zm-9.6-.3c.3.1 0-.2 0 0zm2.7 0c0 .1-.1.2-.1.4h.2c-.1-.2.1-.3-.1-.4zm.2.2l.1-.1H38v.1zm16.4.4c0-.2 0-.4-.2-.5-.2.2-.2.5.2.5zm27.3.1c0-.3.1-.4-.1-.5-.1.1-.1.5.1.5zM35 8.7c.3.1 0-.2 0 0zm28.9 0c-.4-.1-.5.1-.7.2.1.6.8.4.7-.2zm25 0c-.5-.1-.8.5-.5.8.4 0 .7-.3.5-.8zM34 8.8c.3.1.1-.2 0 0zm25.4.1c-.3 0-.4.2-.6.3.1.4.9.1.6-.3zM34.2 9c.2.2.1-.2 0 0zm53.9.9c-.2-.3-.6-.2-.5-.8-.3 0-.6-.1-.8-.2-.1.1-.1.4 0 .5-.2.1-.4.2-.5.3.2.5 1.6 1.1 1.8.2zm-7.5 0c0-.3.1-.5 0-.7-.7-.4-.6.8 0 .7zm-41.4-.7c0 .1 0 .1 0 0zm18 .8c-.1-.4.3-.6.1-.9-.8.1-1.3 1.1-.1.9zm-12.5-.7c.2 0 0-.2 0 0zm66.8.6c.1-.2.1-.5 0-.7h-.2c-.1.2-.2.3-.1.6.2 0 .2.1.3.1zm-76.6-.6c.2.1 0-.1 0 0zm57.1.2c0-.1.1-.3-.1-.3-.1.2-.1.3.1.3zm-59.1-.2c-.1.3.3.2 0 0zm5.2.2c-.2.3.2-.1 0 0zm-3.9.1c.1.2.1-.2 0 0zm2.3 0c.1.2.1-.2 0 0zm-.2.1c.1.2.1-.2 0 0zm-2.7.2c0-.1.1-.1 0-.2 0 .1-.1.2 0 .2zm-.5-.1c-.4-.1-.1.2 0 0zm4.7.2c0 .2.1-.3 0 0zm22.2.6c.1-1.4-1.1.2 0 0zm-25.8-.2c0-.2-.2-.2-.3-.3 0 .2 0 .3.3.3zm.3-.2l.1-.1h-.1v.1zm2.6 0c.1.2.2-.3 0 0zm-2.3.1c-.4-.1-.1.2 0 0zm-1.2.6c.2.2.2-.3 0 0zm74 0c-.1-.1-.5-.2-.5 0 .2.3.4.4.5 0zm-74.6 0c-.2.3.3.2 0 0zm4.4.2c.2 0 0-.2 0 0zm.5 0c.2.2.1-.2 0 0zm-3.2 0c.3.1.1-.2 0 0zm-.7.1c0 .1 0 .1 0 0 0 .1 0 .1 0 0zm.1 0c0-.1 0-.1 0 0zm.3.1c.2 0 0-.2 0 0zm28.7.1c-.3.4-.3.7-.1 1.2.9.1.7-.8 1.4-.9 0-.2 0-.3-.1-.4-.2.2-.3.1-.5 0-.1.2 0 .4-.3.5-.1-.1-.1-.2-.1-.3-.1-.1-.2-.1-.3-.1zm-29.9.2c.2-.1 0-.1-.1-.3 0 .1 0 .2.1.3zm54 0c-.1.2.2-.2 0 0zm-49.2.1c-.2.2.2-.2 0 0zm24.6.4c.1-.1.1-.4 0-.5-.2 0-.2.4 0 .5zm-2.7-.2c.2.1.1.3.4.3 0-.1.1-.1.1-.1.1-.4-.4-.6-.5-.2zm-21.6-.2s0 .1 0 0zm0 .1s0 .1 0 0c0 .1 0 0 0 0zm2.8.6c.1-.1.1-.4.1-.6-.1-.1-.4 0-.5.1.5 0 .1.5.4.5zm16.8.6c.2.1.1-.2.3-.2.1.2.4.1.7.1.6-1.2-1-1-1.6-.6-.5-.6-1 .2-1.7-.1 0 .2.1.3.1.5.8 0 1.4-.1 2.2.3zm-18.2-.9s0 .1 0 0c0 0 .1-.1 0 0zm1.1 0c-.2.2.2-.1 0 0zm4.1 0h-.3c-.2.4.5.4.3 0zm10.5.6c0-.1 0-.1.1-.1-.1-.4-.7-.5-.6.1.2-.1.4.1.5 0zM39 12.3c-.3.3.2.2 0 0zm13.6 0c-.1.4.3 0 0 0zm1.7.1c-.4-.1-1.1-.3-1.3 0 .2 0 1.2.8 1.3 0zm-5.9.3c-.1.1 0 .3.1.3 0-.1.2-.4-.1-.3zm12.8 1.8c-.2 0-.2.2-.2.4.3.2.5-.1.8-.2 0 .2.1.2.3.2.3-1.1-1.3-1.6-2.3-1.7.1 1 1 .7 1.4 1.3zm9.2-1.1c-.2.2-.5.3-.6.7.3.1.9-.5.6-.7zm-17.7.4c.1-.1.1-.2.1-.3-.2 0-.4-.1-.5.1.1.1.3 0 .4.2zm35.2-.2c.1 0 .2-.1.2-.2-.1 0-.2.1-.2.2zm-.1.2c.1-.1.1-.2-.1-.3 0 .1 0 .3.1.3zm21.6-.3c-.1.4.2.1 0 0zm-6.4.4v-.3c-.3-.1-.8-.1-.8.3.3.1.6.1.8 0zm8.7.1c.1 0 .1.1.3.1.1-.1 0-.4-.2-.4 0 .1-.2.1-.1.3zm-3.2.1c0-.1.1-.5-.1-.4 0 .2 0 .4.1.4zm-69.2-.2c-.1.2.3-.1 0 0zm38.9.3c0-.1.1-.5-.1-.4 0 .2-.1.5.1.4zm2.2-.2c0 .3.1.4.1.5.3 0 .4-.2.4-.5h-.5zm12.4.3c-.1-.1.2-.3-.1-.3 0 .2-.2.3.1.3zm-8.5 0s0 .1 0 0c0 0 0-.2 0 0zm-2.8 0c-.1.1-.1.2.1.3 0-.1 0-.3-.1-.3zm-45.2.4c.1.3.1-.2 0 0zm46.8 0h-.3c-.1.3-.2.6-.1.8.5-.1.5-.4.4-.8zm-18.9.2c.1.1.2.1.3.1.1-.3-.3-.3-.3-.1zm27.7.8c.1-.4.5-.5.5-1-.5 0-.6.7-.5 1zm-8.1-.7v-.2c-.1 0-.2.1-.2.2h.2zm26.8-.2c-.2 0-.3.4-.2.5.3 0 .3-.4.2-.5zm-30.8.7c.1-.1 0-.4-.1-.5.1.2-.1.5.1.5zm11.7-.4c-.2-.1-.5 0-.6.3.1.2.7.1.6-.3zm6.9 0c-.1.2.2-.2 0 0zm-63.3.2c.2 0 0-.2 0 0zm62.2.2c-.2-.2-.5 0-.4.3.2 0 .4-.1.4-.3zm-61.5 0l-.1.1h.1v-.1zm60.4.3c.1-.1.2-.3-.1-.3 0 .2 0 .3.1.3zm-13.4.4c-.1-.1.1-.5-.1-.5-.1.2-.2.5.1.5zm24.9 1.1c.2 0 .2.3.3.4.6-.7 1.7-.8 2-1.7-.7.1-.8.9-1.5 1-.5.1-.7-.3-1.3-.4-.6 0-1.4.3-2.2.3-.7-.1-1.1-.7-1.7-.3 1 1 3.1.8 4.4.7zm-26.2-.8c.2-.1.1.2.3.3.1-.2.2-.5 0-.6-.1.2-.2.2-.3.3zm-44.4-.1c.2.2.1-.3 0 0zm55.1.4v.2c.2 0 .1-.1.2-.2h-.2zm.2.1c0-.1 0 0 0 0zm-44.4.6c.1-.2.1-.3.1-.6-.7-.1-.7.7-.1.6zm44.4-.5c.1.2.2-.3 0 0zm-.9.1c0 .3.2.5.5.6.2-.4-.2-.9-.5-.6zm-50.3 1.2c.2-.5-.1-.9-.6-1 0 .6 0 1 .6 1zm28.8-.7c.2.2.2-.2 0 0zm-36.8.4v-.3h-.3c0 .3.1.3.3.3zm31.2.1c.1 0 .3.1.5.1 0-.2 0-.3.1-.4-.3-.2-.8-.1-.6.3zm-31.2.3c1.4 1.3 1.1-1.4 0 0zm42.2.9c.1-.5.5-1.2-.1-1.4-.3.2-.7 1.4.1 1.4zm5.2-1c-.2 0-.3.5-.2.5.1 0 .2-.2.2-.5zm-3.9 1.1c0-.3-.1-.7-.3-.8 0 .4 0 .8.3.8zm33.7-.4v-.4h-.2c-.1.1 0 .4.2.4zm-82.8-.3c-.3 0-.8-.1-.8.3.3.1.8 0 .8-.3zm38.8.9c0-.1.1-.1.1-.1v-.4c-.1 0-.2 0-.3-.1-.1.2 0 .5.2.6zm-6.5 0c.3 0 .3-.3.3-.5-.2-.1-.4.3-.3.5zm20.3-.4c0-.1.1 0 0 0zm-13 .4c.1-.1.2-.3-.1-.3.1.1.1.2.1.3zm-45.8 0c-.3-.1-.7-.1-.8.2.3.1.6-.1.8-.2zm78.6 0c-.1 0-.1-.1-.3-.1-.1.2.3.2.3.1zm-25.1.5c.1-.1.2-.2.1-.5-.3.3-.3.2-.5-.1v.4c.2.1.2-.1.4.2zm.8-.1c.1 0 .2-.4-.1-.3.1.1 0 .3.1.3zm25.7 0c0 .4.5.8 1.1.8.3-.4-.3-.5-.3-.8-.4 0-.8 0-1.1-.1v.2c.1 0 .1.1.1.1 0-.2.1-.3.2-.2zm2.9.3c-.1 0-.3 0-.3.1 0 .2.1.3.3.3v-.4zm-64.1.1c-.1.1-.1.5.1.5 0-.2.1-.5-.1-.5zm33.6.6c.1-.2.3-.1.3-.4-.3 0-.5.2-.3.4zm19.9-.3v.3c.6.3.6-.8 0-.3zm-27.5.3c.2.1.7.5.9.1-.1-.2-.3-.3-.3-.5-.3.1-.6.2-.6.4zm38-.3c-.1 0 0 .1 0 0zM60.3 22c.2 0 .5 0 .6-.3-2.2-.1-4.5-.7-6.3-.8 1.5.5 3.9 1.3 5.7 1.1zm40.5-.4c1.1-.4-.1-1 0 0zm-77.6 0c.1-.2.1-.7-.3-.6 0 .4.1.5.3.6zm73.3.6c-.3.1-.6-.2-.8 0 .3-.2.3-.6.1-1-.8.2-1.7.4-2.3.1 0 1.4 2 1.3 3 .9zm-71.7 0c.3-.1.4-.4.5-.8-.8-.2-.5.6-.5.8zm44.6.3c.1 0 .2-.1.4-.1.1.1.1.3.4.3 0-1.5-1.9-1.6-.8-.2zm5.5-.8c.7 1.6 1.5-1.1 0 0zm-2.2.3c.3 0 .5-.2.5-.5-.2-.1-.6.2-.5.5zm1.1-.1c-.1.4.2.5.6.5.1-.2.1-.4.1-.7-.4.1-.4.2-.7.2zm8 .2c.2 0 .1.1.3.1 0-.1.2-.4 0-.5-.1.2-.3.3-.3.4zm-40.1.9c.3-.2.6-1 .2-1.2-.5.5-1.1.9-.2 1.2zm19.7-1.2v.1h.1l-.1-.1zm37.1.3c-.2.1-.1 0-.4 0 0 .3.4.2.4 0zm.7 0c0 .1-.2 0-.3.1v.2c.1 0 .5-.1.3-.3zm-58.1.8v-.5c-1-.7-1.2.9 0 .5zm55.8-.6c-.1-.1 0 0 0 0zm1.7 0c0-.3-.1.4 0 0zm-29.8 0c-.5.1-.8.5-1 1 .5 0 1.4-.5 1-1zm-23.4.8c.3-.6-.2-.9-.5-.5.1.1.3.6.5.5zm56-.3c-.1-.2 0-.5-.2-.5-.1.5-.1 1.1.5 1.2.1-.2.3-.3.2-.6-.3.1-.4 0-.5-.1zm5.6-.3c-.5-.1-1.2.1-1 .8.4-.3.8-.4 1-.8zm-20.9.6c0-.3.1-.3 0-.5-.6 0-1.5.5-2 .6.5.5 1.3 0 2-.1zm-41.8-.4c0 .2 0 .3.2.3.1-.2.1-.4-.2-.3zm3.5 0c-.1.3.3 0 0 0zm49 .3c0-.2 0-.3-.1-.3-.1.2-.2.4.1.3zm-25.3.3c.1-.1.3-.2.2-.5-.3 0-.4.5-.2.5zm-54.8.6c.2 0 .3-.1.4-.2-.3-.1 0-.7-.3-.8 0 .4-.2.8-.1 1zm48.9.6c.4 0 .6-.1 1-.1.1-.5.7-.8.5-1.5-.8.1-.8.9-1.6 1 0 .3 0 .5.1.6zm-38.8-.9c-.1-.2-.5-.1-.8-.1 0-.1 0-.2.1-.3-.9.3.5 1 .7.4zm-2.2.3c.1-.1.2-.2.1-.5-.2 0-.4.1-.6.1 0 .3.2.4.5.4zm16.9-.3c-.5.1-.6.5-.5 1 .3.1.3-.2.6-.3-.1-.2 0-.6-.1-.7zm28 .6c.6.2 1.4 0 1.5-.6-.4.1-1.2.2-1.5.6zm-51.7.1c.1.8-.1 1.6.1 2.2.1-.7.1-2.2.1-2.9-.2.1-.7.1-.8.3 0 .3.5.2.6.4zm81.4-.4c0-.1 0-.2-.1-.3 0 .1-.1.3.1.3zm-20.1-.2c-.4-.1-1 .2-.8.7.3-.1 1-.2.8-.7zm-3.5 1.1c0-.2.2-.9-.1-.9 0 .4-.3.8.1.9zm-16-.5c.4-.2-.3-.3 0 0zm3.7.3c.2 0 .3-.1.3-.3-.2-.1-.3-.1-.5-.1-.1.2.1.2.2.4zm-2.8.4c.1-.3.1-.6-.3-.7-.3.2-.1.9.3.7zm4.5-.6c-.1 0-.1-.1-.2-.1-.1.2-.2.4.1.5-.1-.2.1-.2.1-.4zm-35 .4c.1-.1 0-.3-.1-.4-.1.1-.2.4.1.4zm27.9.9c1.4.1-.2-1.5 0 0zm12.4-.7c-.2-.2-.6.2-.8.1-.1.2-.1.6 0 .8.4 0 .3-.1.6-.1 0-.3.2-.4.2-.8zm40.1.4v-.3h-.3c.1.2.2.3.3.3zm-.7-.1c-.2 0-.2-.1-.4 0 0 .1.1.1.1.3.3 0 .3-.1.3-.3zm-87.9.7c.1-.2 0-.6-.3-.6-.2.3 0 .6.3.6zm52.4-.3c0 .2 0 .5.1.5.2 0 .3-.6-.1-.5zm.8 1c.2-.3 0-.8-.3-.9-.1.3 0 .7.3.9zm-19.6-.6c-.4 0-.6.1-.6.4.1 0 .7 0 .6-.4zm-.7.2h-.2c-.1.1-.1.2-.1.3.3.1.3-.1.3-.3zm15.2.4c.1-.2.1-.3-.1-.4.1.1-.1.4.1.4zm22.8.5h.3c0-.3 0-.5-.3-.7-.1.1-.1.5 0 .7zm23.1-.6c-.1 0-.3 0-.3.3.3 0 .3-.1.3-.3zm-51.9.2c0-.1-.1-.2-.2-.2-.1.2 0 .3.2.2zm51.2 1.4c-.1-.4 0-.6 0-1-.1-.1-.4-.1-.6 0 .1.6.4.5.6 1zm-63.5-.4v-.4h-.3c0 .3 0 .4.3.4zm23.9-.2c-.1.1-.1.2-.1.3.2 0 .5 0 .5-.2-.1-.2-.2 0-.4-.1zm-47.1 1.2c.6 0 .9-.4.8-1.1-.6.1-.8.6-.8 1.1zm63.2.6c.2-.4.1-.9 0-1.4-1.1-.3-1.9.4-1.3 1.2.4.1.8 0 1.3.2zm-63.5-1c0-.4-.5-.3-.6 0 .2.1.3-.1.6 0zm2.5-.1c-.3-.1-.7-.2-1.1-.2.1.5.9.4 1.1.2zm.6.3c.5-.1.6.1 1 .2.1-.6-.8-.3-1.1-.5 0 .2.1.2.1.3zm-4.5-.2c-.3.2-.9-.2-1.1.3.3.1 1 0 1.1-.3zm25.7.1c0 .1 0 .1 0 0zm0 .2s0-.1 0 0zm22.7-.2c0 .2 0 .3.1.4 0-.1.1-.5-.1-.4zm-42.3.3c0-.2-.1-.1 0-.3-.2 0-.3 0-.3.2.1 0 .2.1.3.1zm.5.1c-.1-.3-.2-.2-.4-.3 0 .1-.1.1-.1.3.2-.1.3 0 .5 0zm46.4.2c.1-.1.2-.1.2-.1-.1 0-.1 0-.2-.1v.2zM29.3 29c-.1.1-.1.2-.1.4.3 0 .4-.4.1-.4zm-14.1.4c-.4-.4-.7-.1-1.3-.3.3.4 1 .7 1.3.3zm19.6.2c0-.2-.1-.2-.3-.3 0 .3.2.3.3.3zm57 .1c-.8-.2-1.5 0-1.3.7.1-.2.5-.3.5 0-.2.3-.6 0-.8.1.5.6 2.1 0 1.6-.8zm-69.5 0c-.1.2-.4.2-.2.5.3-.1.5-.5.2-.5zm18.5 1.1c1.3-.1-.3-1.2 0 0zm-4.8-.4l.1-.1H36v.1zm-21 .7c-.1-1.4-1.2.2 0 0zm-4.7-.2c.1.1.2.2.5.1 0-.3-.1-.4-.3-.5-.2.1-.2.2-.2.4zM6 30.8c-.1.3.6.3.5-.1-.3 0-.5 0-.5.1zm51 .9c.2-.1.2-.1.5-.1.2-.4 0-1-.6-1 .2.6.1.7.1 1.1zm-20.2-.8c0 .2.1.3.3.3-.1-.2-.1-.3-.3-.3zm9.8 0h-.2c-.1.1-.1.5.1.5.1-.1.3-.4.1-.5zM13 32.2c-.1-1.8-1.7.4 0 0zm1.6.1c.3-.2 1-.2 1.3-.5-.4-.1-1.4 0-1.3.5zm97.2-.3s-.2.3 0 .3c-.1-.1.2-.2 0-.3zm-72.3.2c.1.3.2.5.5.5 0-.4-.2-.6-.5-.5zm48 .1h-.3c-.2.3.4.3.3 0zm23.9.1c-.1-.1-.4-.1-.5 0v.3c.3.1.5 0 .5-.3zm-43 1.1c0-.5-.2-.8-.6-.8-.1.3.3.9.6.8zm-27.3-.7c-.1.1-.1.2.1.3 0-.1 0-.3-.1-.3zm1.5 0c-.1 0-.4-.1-.4.1.1.1.5.2.4-.1zm-21.2.5c.1.1.3.1.5.2 0-.3-.2-.4-.4-.5.1.1-.1.1-.1.3zm43.5.6c.5 0 .4-.6.2-.9-.2.2-.4.6-.2.9zm17.8-.6c.2 0 .2-.1.2-.3-.2 0-.2.2-.2.3zm-37.8-.1s0-.1 0 0c-.1 0-.1 0-.2-.1v.2h.2v-.1zm3.3.3v-.2c-.5.1-.9.2-1.2.4.6.2.8-.3 1.2-.2zM45.1 35c0-.1-.1-.2-.1-.5-.1 0-.2 0-.3-.1 0-.3.2-.9-.1-1-.2.4-.2 1-.3 1.5.3.3.7.3.8.1zm36.5-1.5zm-17.6.4c-.2 0-.2-.1-.5-.2 0 .5-.6.4-.6.9.6.1 1.2.1 1.1-.7zm-19-.1c0 1.2 2.4 1.3 3.4 1.1-.6-.9-2.3-.1-3.4-1.1zm35.8.3zm-28.1.4c.4.1.5-.2.6-.5-.3-.1-.7.1-.6.5zm-33.1-.4c0 .4.3.6.6.5-.1-.4-.3-.5-.6-.5zm60 .1c-.1.1-.4 0-.3.3.2.1.5-.1.3-.3zm-30.5.4c.2.2.6-.1.4-.3-.1.2-.1-.2-.3-.1.1.3-.1.3-.1.4zm51.2.1c0-.1.1-.2.1-.5-.3.1-.5.5-.1.5zm-82.9-.1c-.2-.1-.2.1-.3.1-.1.2.5.2.3-.1zm49.6.3c-.2.3.1.7.3.7.3-.3.1-.7-.3-.7zm2.2.4c.1-.1.1-.2.1-.4-.1-.1-.2-.1-.4-.1.1.3.2.5.3.5zm14.6 3c0 .3.4.2.5.3-.3.5-.5 1.2-.1 1.9.6-.2.6-1.1 1.1-1.4.2.3.5.3.8.3 0-.3-.2-.3-.2-.5.6-.2.8-.7 1.1-1.2-.3.1-.7.1-1-.1 1-.9 2.4-1.7 3.1-2.8-.6.2-.8.7-1.5.7-.1 1-1.7 1.9-2.4.9-.1.1-.1.3-.3.3-.4-.1-.2-.7-.5-1-.6.5-.5 1.5-.5 2.4.2.1-.1-.1-.1.2zm-.7-2.7c.2.2.3.1.6.1.1-.1.1-.4.1-.7-.3.1-.8-.1-.7.6zm-23.6-.5c-.2-.2-.5.1-.2.2 0-.1.2 0 .2-.2zm-22.8.2c-.1.3.2.2.3.3.1-.3-.1-.5-.3-.3zm-14.8.7c0-.4-.2-.6-.6-.7.1.4.3.8.6.7zm93.3-.4c.2 0 .3 0 .3-.2-.1-.2-.3 0-.3.2zm-100.3-.1c-1.1-.4-.1 1.4 0 0zm-2.3.3c.3.1.6 0 .6-.3-.3.1-.5.1-.6.3zm28.7.4c.1-.1.1-.5-.1-.5 0 .2-.1.5.1.5zM6.5 36v.3h.3c0-.3-.1-.4-.3-.3zm23.1 1.2c.1-.1 0-.4.2-.4.6-.1 1 .7 1.4.4.1-.2-.3-.1-.3-.3.1-.1.1-.3.2-.4-.1 0-.2 0-.3-.1-.1.1 0 .3-.1.3-.3-.4-1.9-.4-1.1.5zm7.7-.8c-.1.2 0 .4.2.5.1-.2.1-.6-.2-.5zm-19.1.1c0 .4.3 0 0 0zm18.6 0c0 .2-.2.7.2.7 0-.3-.1-.4-.2-.7zm-14.3.6c.3 0 .5.5.8.3-.1-.3-.1-.4-.1-.8-.3 0-.4.3-.7.1v.4zm21.9-.3c.1 0 .2-.1.2-.2-.1 0-.2.1-.2.2zm15.5-.1c-.8 0-1.9.3-2.6.8.1 0 .1.1.1.1.9-.5 1.8-.2 2.5-.9zm-52.2.5c.1-.1.1-.5-.1-.6-.1.2-.1.6.1.6zm33.6-.4c0 .2-.1.5.1.5 0-.1.1-.5-.1-.5zm2.7.4c.1-.2.1-.4-.2-.5-.2.2-.1.6.2.5zm-39.5 0c.1-.2 0-.4-.3-.4.1.3.2.4.3.4zm2.1-.3c-.1.4-.1 1.1.2 1.3.3-.4.4-1.1-.2-1.3zm36.8.2c.2.1 0-.2 0 0zm55.5.5c-.1-.8-.8-.1-1.3-.3-.1.7.9.5 1.3.3zm-34.7 0c.1.9 2.3.6 2.2-.1-.1-.5-2 0-2.2.1zm-32.1-.2c-.1.1-.1.2-.1.3.1 0 .1 0 .1.1.2 0 .2-.2.3-.3-.2 0-.2-.2-.3-.1zm14.7.2v-.3c-.2 0-.3.1-.3.3.1.1.2.1.3 0zm-19.5-.2c-.2 0-.3.1-.3.2.1.2.4.1.3-.2zm25.4 1.3c1.3-.5 3-.2 3.9-1.1-.4-.4-.8.2-1.5.2-.2 0-.5-.1-.6-.1-.6.1-1.2.8-1.9.3 0 .2-.2.5.1.7zm-21.9-1.2c-.1.2.1.2.1.4.4 0 .5.2.6.5.3.1.2-.2.5-.1-.1-.6-.7-.6-1.2-.8zm-16.3.4c.1-.3-.3-.3-.3 0h.3zm56.4.2c.4 0 .8.2.8-.4-.3-.1-.9-.2-.8.4zm-47.6-.4H23c0 .1-.1.2-.1.5h.3c.1-.2.1-.3.1-.5zm18 .1c0 .6-.4 1.1-.5 1.8.4-.4.7-1.4.5-1.8zm21.2.4c0-.2 0-.3-.1-.3-.1.2-.1.3.1.3zm21.3.7c.1-.3-.1-.5-.1-.7-.4.2-.7-.7-1.3-.3-.2 1.1.8 1 1.4 1zm-68.3-1c-.2.2-.6.2-.7.5.3.1.9-.3.7-.5zm65.1.7c.1-.2.2-.5-.1-.7-.2.2-.3.7.1.7zm23.8-.7c-.1.2.2.4.3.2-.1 0 0-.2-.3-.2zm.5.4c.2 0 .3-.1.3-.3-.1 0-.1-.1-.3-.1v.4zm-87.5 0c-.1.3-.6.2-.6.5.3 0 .9-.3.6-.5zm16.8.9c-.1-.7-.5-1-1.2-.9 0 .1-.1.1-.1.3.3.3 1 .5 1.3.6zm9.4-.7c-.1-.3-.3.1 0 0zm8.5 0c-.5-.3-1.2.2-1.7.1v.3c.5.1 1.3.1 1.7-.4zm12-.1s.1.1 0 0zm10.6-.1c-.4 0-.7 0-1 .1.1.5 1 .3 1-.1zm-44 .2c-.1 0-.1 0 0 0zm-23.8 0c0 .1 0 .2.1.3 0-.2.1-.4-.1-.3zm21.8 0h-.1v.1l.1-.1zm-16 .4c.1.2-.1.7.1.7.1-.2.4-.3.4-.7-.1-.2-.3-.2-.5 0zm27.1-.1c0 .3.3.2.4.1-.2-.1-.2-.2-.4-.1zm18.7-.1c-.1.4.3.1 0 0zm-28.9.4c-.1-.1-.3-.3-.6-.3.1 1 1 2.2.3 3.1.9 0 .7-1.3.5-2 .4-.1 1 .1 1-.6-.4-.1-.8-.4-1.2-.2zm18.8-.2c-.1.2.3.3 0 0zM66 40.8c.3 0 .5-.1.6.1.1-.3.1-.4.3-.6.5.3.9-.9.6-1.5-.5.1-.8.6-.9 1.1-.7-.3-1.1.6-.6.9zm-33-1.9c0 .2-.2.9.1 1 .2-.2.1-.8-.1-1zm12.9.4c.1.1.3.1.5.1 0-.2.1-.1.1-.3-.2-.2-.4 0-.6.2zm1.5-.2zm50.2.3c0-.1.3-.3 0-.3.1.1-.1.2 0 .3zm.8 0c0-.2.4-.1.3-.4h-.3c0 .2-.2.4 0 .4zm-67.5 0c.1-.1.1-.3-.1-.3 0 .1-.1.3.1.3zm27.1.4c-.3-.1-.1.2-.3.2-.6-.6-2.2-.2-3.1-.8-.2.3-.3 0-.6.1-.1.2-.1.2-.1.4 1 .1 2.1.3 3.1.4.4-.1 1.2.1 1-.3zm-31.3-.2c-.6 0-.7-.5-1.3-.5-.3 1 1.1 1.1 1.3.5zm1.8.1c0-.1.2-.2.1-.4-.2 0-.1.1-.3.1 0 .1 0 .2.2.3zm3.7 0c.1-.1.1-.5-.1-.4.1.1-.1.5.1.4zm-20.8 5.8c-.7-.9-1.6-1.2-2.4-2-1.3-1.3-2.1-3-3.5-4.1 0-.1-.1-.1-.1-.1 1.6 2.4 3.3 5.1 6 6.2zm10-5.8c.4.2 1 .4 1.5.3.1-.9-1.4-.7-1.5-.3zm22.5-.1c0-.1 0-.2-.1-.3 0 .2-.1.4.1.3zm49.8.1v-.3h-.1l.1.3zM43 39.6c0 .3.5.1.6.1-.1-.2-.4-.2-.6-.1zm-.3.1c-.2-.1-.9-.1-.9.2.2.1.8.1.9-.2zm48.9.1c0-.1.1-.1 0 0 0-.1 0-.1 0 0zm18.5.1c-.2 0-.3.2-.4.3.1.1.2.1.3.1 0-.3.1-.2.1-.4zm-21.9.7c.2.2.2.3.1.6.4.7 1.1.9 2.1 1.1.1-.1.1-.3.1-.5-.4.2-.6-.3-.8-.6.5-.8-.8-.9-1.2-1.3 0 .3-.2.5-.3.7zm-48.9.2c.6-.2 1.2-.2 1.5-.7-.6-.1-1.4.3-1.5.7zm-6-.6c-.1.2 0 .3.1.5.1 0 .3-.1.3.1-.2.2-.3.5-.3.9.6-.1.2-.7.6-1 .4-.2 1.6.4 1.6-.6-1 0-1.6.4-2.3.1zm75.7 1.1c.3-.2.3-.5.4-.9-.4-.1-.5.6-.4.9zm-93.1-.1c0-.1 0-.3.1-.3.3-.1 1 .2 1-.3-.6.1-1.6-.5-1.8.5.1.1.4.2.7.1zm16.7-.5c.1 0 .2-.1.2-.2-.2 0-.2.1-.2.2zm-2.1.6c.6.1 1.3-.4 1.6-.7-.7.1-1.3.2-1.6.7zm7.5-.6c0 .2-.1.1-.1.3.3.1.3-.4.1-.3zm-12.6.8c1.2-.1.2-1.3-.1-.1.1 0 .1 0 .1.1zm43-.7c-.1 0-.1-.1-.2-.1 0 0 0 .1-.1.1v.1c.2 0 .3.1.3-.1zm-55.2 2c.7-.1 1.6-.5 2.4-.5-1.6-.7-3.8-1.2-5.9-1.4v.2c1.3.6 3.2.5 4.2 1.2-.5-.1-.9.2-.7.5zm7.2-1.7c-.1-.4-.7-.3-1-.3.1.5.6.3 1 .3zm4.9-.1c0-.1 0-.2-.1-.3 0 .2-.1.4.1.3zm13 .4c.3-.1.7-.3.9-.5-.5 0-.9 0-.9.5zm-5.1-.5s0 .1 0 0zm3.1.5c0-.2.1-.1.1-.3-.1 0-.1-.1-.3-.1 0 .2 0 .4.2.4zm.6.3c1.1-.2-.3-1.2 0 0zm25-.5c.3 0 .3.4.5.2 0-.3-.3-.5-.5-.2zm29.4-.1c-.2.4-.3 1.5.4 1.5 0-.6 0-1.2-.4-1.5zm-85.9.8c-.1-.3-.4-.4-.7-.5 0 .3.3.5.7.5zm23.4.1c.3.1.3-.1.4-.2-.1 0-.1-.1-.1-.1-.2 0-.3 0-.3.3zm78.6.1c.3.1.3-.4.1-.3 0 .1-.2.1-.1.3zM10 42c-.1-.1-.2 0-.4 0v.3c.2 0 .4 0 .4-.3zm92.9 1.6c.3-.1.3-.5.2-.8-.1-.1-.5.1-.6-.2-.2 0-.2.2-.5.3-.1-.3-.4-.2-.7-.1-.1-.3-.2-.6-.5-.8 0 .2-.3.2-.3.4.6 1.1 1.6.7 2.4 1.2zM63.8 42c0 .1-.2.1-.1.3h.2c0-.1 0-.3-.1-.3zm7.7.3V42c-.1 0-.2 0-.3.1.1.1.1.3.3.2zm-48.8.3v-.2h-.2c0 .2 0 .2.2.2zm56.3-.1c-.1.4.4.4.3 0-.2 0-.2-.2-.3 0zm-56.9 3.2c.3-.1.7-.1.7-.5-2-.3-2.7-3.3-5.2-2.6.1.7.7.2 1 .3.4.1 1 .8 1.4 1.1.8.6 2 .8 2.1 1.7zm14-3.2c0 .1-.3-.1-.3.1.1 0 .2.1.3.2.1-.1.2-.3 0-.3zm1.6.6c.2-1.3-1.2 0 0 0zM20.3 43c.2-.2.3.2.5.1.1-.1.1-.2.1-.3-.2 0-.4-.1-.6-.1 0 .1-.1.2 0 .3zm35.6.2c.1-.2.1-.3.1-.5-.3-.1-.4.1-.4.5.1-.1.2-.1.3 0zm-34.2 0c.9 1.7 1.4-1.2 0 0zm52.6-.3c0 .1 0 .2.1.3.1-.2.1-.4-.1-.3zm32.2 0c-.2 0-.5.4-.3.5.1-.2.3-.2.3-.5zm-75.1.3c0 .3.1.3.3.3.1-.3 0-.4-.3-.3zm1.8.6c0-.1.1-.1 0 0 .3-.4 0-.6-.2-.6-.2.2 0 .6.2.6zm42.4-.6v.3c.1 0 .2 0 .3-.1-.2-.1-.2-.1-.3-.2zm-18.3.1c0 .1-.1.3.1.3.1-.1.1-.3-.1-.3zm6.6.1s-.2.3 0 .3c0-.1.1-.3 0-.3zm-8.6 0c-.1.4.3.1 0 0zm14.4.2c-.1.3.1.5.2.6.4.2 2.5.1 3.8.1.9 0 1.7.1 2.3-.1-.2-.3-.6-.4-.9-.4-1.8-.1-3.4.2-5.4-.2zm-35.7.2c0-.2.1-.1 0-.3-.3 0-.3.4 0 .3zm20.1-.1c-.1.1-.1.3.2.3-.1-.1 0-.4-.2-.3zm12.9 0c.1.4.4.1 0 0zm1.5.9c0-.1.2-.1.1-.3-.3-.2-.7-.4-1.2-.5-.1.1 0 .3.1.4.3-.1.9.2 1 .4zm31.8-.6c-.5 0-1.4.2-1.9.5.5.3 1.5 0 1.9-.5zm-50.3.3c0-.1.1-.3-.1-.3 0 .1 0 .3.1.3zm-19-.2c0 .2.1.3.3.3.1-.3-.2-.4-.3-.3zm1.6 0v.5c.3.1.4-.3.3-.5h-.3zm-.7.2c0 .3.1.3.4.3v-.3h-.4zm55.2 0c0 .1-.1.1-.1.2.2.1.2-.2.1-.2zm-52.7.3c.2 0 .3-.1.3-.2 0 0-.1 0-.1-.1-.2.1-.2.3-.2.3zm47.1 0c0-.1 0-.2-.1-.2-.1.1 0 .2.1.2zm-31-.2zm18.2.1c.1.2.2-.2 0 0zm1.7-.1c-.3 0-.3.3-.3.6.2 0 .9.1.5.6.1.1.2.2.5.1 0-.4-.2-.4-.1-.8-.3-.1-.6-.1-.6-.5zm-46.4.2c-.2-.1-.6.1-.6.4.3.1.7-.1.6-.4zm44.9 0s.1 0 0 0zm10.8 3.8c.3-.5.5-1.1.8-1.5.1 0 .2.1.3.1.4-.8.6-1 .4-2-.4 0-.4-.5-.8-.6-.1.2-.1.4-.5.3.2.4-.5.8-.4 1.3 0-.1.2-.2.2-.1-.3.5-1 1.2-.4 1.9 0 .3-.4.5-.2.7.1-.1.4-.3.6-.1zm-47.6-3c.8.3 1.9-.6 2.6.3 0 .3-.3.3-.2.7.3.1.5-.2.6-.4.4.2.8.4 1.3.4.3-1-1.4-.6-1.7-.7.1-1.6-2.1-.9-2.6-.3zM59 45c.1-.3-.4-.3-.4-.1.2 0 .2.2.4.1zm27.4-.2c-.2 0-.4.4-.2.6.2-.1.5-.5.2-.6zm-81.3.1v.2c.2 0 .3-.1.4-.1.1-.2-.3-.2-.4-.1zm81.8 0c.1.2.2-.3 0 0zm-15.4.3c-.1-.2-.3 0-.5-.1 0 .1-.1.1-.1.3.2-.1.7.1.6-.2zm-8.3 0c.2.3.7.4 1 .2-.1 0 0-.1 0-.1-.3-.2-.7-.2-1-.1zm-44.8.5c.1-.2.1-.4-.1-.5-.2.1-.1.5.1.5zm82.8-.3c.1.1.3 0 .3-.1-.2 0-.3 0-.3.1zm12.3.1c.1-.3-.5-.3-.5-.1.2.1.3.2.5.1zm-43.6.2v-.3h-.3c0 .2.2.2.3.3zm41.7.3c.1-.2.3-.3.4-.6-.3-.2-.7.5-.4.6zm-82.4-.5c-.4-.1-.5.3-.3.6.2-.1.3-.3.3-.6zm80.5.1c-.1 0 0 .1 0 0zm-97.8.1c.5.9 2 1.2 3.1 1.7-.8-.8-2.1-1.1-3.1-1.7zm26.8 0c-.1.2-.3.2-.2.5.3.1.4-.1.4-.3-.1 0-.1-.1-.2-.2zm-28 .2c.4.1.1-.2 0 0zm64.9 0c-.1.2-.3.3-.1.5.7 0 .8.1 1.3.3.3-.7-1.1-.3-1.2-.8zm-37.5.4c.1-.1.1-.2.1-.3-.2-.1-.2.1-.3.1-.1.2 0 .2.2.2zm36.6-.1c0-.1.1-.1 0-.2 0 .1-.1.1 0 .2zm.5.1c.2.1.3-.3.1-.3-.1.1-.1.1-.1.3zm-38-.2c-.1.1-.1.2.1.3 0-.2 0-.3-.1-.3zm-16.1.2c.1.3.2.2.4.1 0-.3-.3-.3-.4-.1zm-17 0c-.1 0-.2 0-.3.1.1 0 .4.1.3-.1zm43.2 0c-.1.2-.3.5-.1.7.5-.1.5-.7.1-.7zM6.9 47.4c0-.2 0-.4.1-.4.1.2.3-.1.5 0 0-.3 0-.6-.2-.7-.2.2-.2.4-.6.3-.2.3 0 .7.2.8zm75.6-1zm19.3 0c.2.3.1-.2 0 0zm-93 .5v-.3h-.2c-.1.1-.1.3.2.3zm25.6-.3c-.5.6-.5 1.5-1.3 1.7.2.5.1 1 .1 1.5.4-.7.6-1.5 1-2.2.4-.1.7-.8.2-1zm49.4 0c-.3 0-.4.1-.4.3.3.1.6 0 .4-.3zm21.3.3c.1-.4-.5-.4-.5-.1.1.1.3.1.5.1zm5.9.4c.1-.2.3-.3.3-.5-.3-.2-.7.4-.3.5zM5.5 47.1c.2 0 .5.1.4-.2-.1-.2-.5-.1-.4.2zm2.8-.2c-.3.1 0 .5.3.3 0-.2-.2-.2-.3-.3zm101.4.1c-.1 0-.1-.2-.2-.1 0 .1.2.3.2.1zm-61.4 0c-.1.1-.1.3-.1.5.2.2.6.1.8.3.1-.3.4-.4.2-.7-.4-.1-.5-.1-.9-.1zm17.1.3c-.3-.2-.7-.3-1 0 0-.3-.3-.2-.5-.1 0 .3.1.5.1.8.7-.2 1.5.2 1.4-.7zm-51.6-.1c-.2-.2-.5 0-.3.3.2-.1.3-.2.3-.3zm92.2-.1c0 .2 0 .4.2.5.1-.1.1-.6-.2-.5zm-73.9.4c.7.1 0-.6 0 0zm53.2-.2c-.1.2.2.1.2.3-1.6 1-4.3.7-5.8 1.2 2.8.6 5-.9 7.4-1-.3-.5-1.2-.4-1.8-.5zm-75.7.5c.1-.1.3-.1.3-.4-.2-.1-.3-.1-.5 0 0 .2.1.3.2.4zm.4-.4c0 .1 0 .2.1.3.1-.1.1-.3-.1-.3zm51.6.2c-.1-.1-.2-.1-.3-.1v.3c.2 0 .3 0 .3-.2zm-24.3 0c-.3 0-.3.3-.1.3 0-.1.2-.1.1-.3zm-5.8.3v-.2h-.2c0 .1 0 .2.2.2zm19.6-.2c-.1.1-.1.2.1.3 0-.2 0-.3-.1-.3zm-28.2.2c-.3-.1-1-.2-1.1.4.5.1 1 0 1.1-.4zm30.7.9c.1-.3.3-.5.2-1-.7.2-1.4.2-2.3.2-.1.5-.1 1 .4 1.2.2 0 .1-.3.2-.3.3 0 .8-.2 1 .1 0-.3.2-.2.5-.2zm46.2-1.1h-.2c0 .2 0 .3.1.3 0-.1.1-.1.1-.3zm-83.5.1c0 .3.2.3.5.3 0-.2-.3-.3-.5-.3zm55.9.1c-1.2.7-2.7 1-3.6 2 1.1-.5 2.6-1.4 3.7-1.7-.1-.2 0-.3-.1-.3zm-22.2 0c-.1.2-.5.2-.9.2-.7 1.3 1.8.8.9-.2zm37.3.1c.1.2.1-.2 0 0zM29 48h-.3c-.1.3.4.3.3 0zm59.8.4c-.2-.2-.8-.3-1-.3.1.3.6.1 1 .3zm18.9-.2c-.1-.1-.3-.3-.5-.2 0 .4.5.6.5.2zm-89.7.4c.3.1.5-.4.2-.5-.2 0-.4.2-.2.5zm88.9-.2v-.3c-.1 0-.3-.1-.5 0v.3c.2 0 .3.2.5 0zM5.3 48.2c-.1 0-.1-.1-.3-.1 0 .2-.1.2 0 .4.2 0 .4 0 .3-.3zm40.8.9c.2-.3 0-.5-.1-.8h-.3c0 .5.2.7.4.8zm-41.9-.6c-.1.1-.2.8.2.7.1-.1.2-.3.2-.5-.1-.1-.1-.3-.4-.2zm2.8.1c-.2.2.2.2 0 0zm92 0c0 .1 0 .2.1.2 0-.1.1-.3-.1-.2zm-.1.2s-.1-.1 0 0zm-82.5.2c-1.9.4-.2 2.1 0 0zm13.9.1c-.5 0-.6.5-.8.8.6.5 1.3-.3.8-.8zm19.2 1c.2-.3.6-.3 1-.3v-.4c-.8-.2-1.9-.4-2.7.1-.1.3.1.3.1.5.6-.1 1.1-.2 1.6.1zm-8.6-.8c-.2-.2-.6-.1-.6.1-.6-.4-1.4.1-2-.3 0 .3-.3.6-.1.8.7-.2 2.5.7 2.7-.6zm-20 .2c.1 0 .2 0 .3-.1-.1-.1-.3-.2-.3.1zm46.8 1.2c.1-.1.1-.4.1-.7-.6-.4-.7-.4-1.4-.3 0 .2 0 .4.1.5.2 0 .1-.2.4-.1.1.1.3.2.3.5.1.1.3.2.5.1zm20.6-1c-.2.3.3.3.5.5 0-.4-.2-.5-.5-.5zm-57.1.1c-.3.5.3.9.8 1 .1-.5-.3-.9-.8-1zm11.9.1v.2c.2 0 .2-.3 0-.2zm7.5 0c-.2.2-.6.2-.7.6.3.1.8-.3.7-.6zm-39.7.6c.2 0 .3-.1.3-.3-.2-.1-.3.1-.3.3zm46.8.1c-.7 0-1.5-.5-1.9-.1.3.6 1.1.5 1.6.8.1-.3.5-.2.3-.7zm4.6-.2c-.1.7.8.9.8.1-.3-.1-.5-.1-.8-.1zm33.5.1zm-69.8.1c.1-.2-.2-.3-.3-.1.2 0 .1.1.3.1zm6.8.1v-.2c-.1-.1-.4-.1-.6 0 0 .1.1.2.1.4.2 0 .5 0 .5-.2zm39.6-.1c.1 0 0-.1 0 0zm-37.1.5c.3 0 .3-.2.4-.3-.2-.2-.6.1-.4.3zm-29.7-.3c-.6-.1-.8.5-.6 1 .5.1.7-.6.6-1zm24.1 0v.3h.3c0-.2-.2-.2-.3-.3zm65.6 0c-.2.3.4.1 0 0zm-59 .3c-.1-.1-.3 0-.3.2.2 0 .3-.1.3-.2zm14 .2L50 51c-.6.2-1 .6-1.6.8-.1-.2-.3-.2-.5-.3 0 .5-.5.3-.8.5 1.2 1.1 2.4-.4 3.8-.3.1-.3-.1-.3-.1-.5-.2.1-.3.1-.5.1zm27.9 0l.1-.3h-.1v.3zm16.9-.2c.3 0 .1-.2 0 0zm-57.9.5v-.5c-.1 0-.1 0-.2-.1-.1.2 0 .6.2.6zm-16.7-.4l.2.1c0-.1-.1-.1-.2-.1zm16.2.3v-.3h-.2c.1.1 0 .3.2.3zm-21.1.1h.3c0-.1.1-.4-.1-.3 0 .2-.2.1-.2.3zm19.2-.3c-.1 0-.2.1-.2.1.1 0 .2.1.2-.1zm43 0c-.3 0-.4.3-.8.2-.3 1.1 1.5.7.8-.2zm-66.4.1c-.1.1-.1.2-.1.5h.4c0-.3-.1-.4-.3-.5zm6.3.1c.2 0 0-.2 0 0zm-.7 0c-.2-.1-.5-.1-.4.3.2 0 .3-.1.4-.3zm5.5 0c-.2-.1-.3.3-.1.3.1-.1.1-.2.1-.3zm10.5.4c0-.2 0-.4-.2-.4-.1.1-.1.5.2.4zm.8-.1c.1 0 .1.1.1.2.3 0 .7-.3.4-.5-.1.2-.5 0-.5.3zm-18.3.4c-.4-1.2-.9.7 0 0zm2.5-.4c.1 0 .1.2.3.2 0-.1 0-.2.1-.3-.2.1-.4-.1-.4.1zm74.3 0c0 .1-.1 0 0 0zm-73.6.1c-.1 0-.1-.1-.1-.1 0 .1-.1.1-.1.1.1 0 .1.1.1.1s.1 0 .1-.1zm46.4.8c.1-.6-.4-.9-.8-.7-.1.5.3.9.8.7zm-28.4-.5c.1-.2-.2-.2-.2-.1 0 0 .1 0 .1.1h.1zm-14.4.8c.1-.3.1-.7-.1-.9 0 .4-.3.8.1.9zm8.4.6c-.2-.6-.5-1.2-1-1.5.3.6.4 1.3 1 1.5zM47 52.4c0-.1 0-.2-.1-.3-.1.2-.1.4.1.3zm56.7 0s-.1-.1 0 0zm11.2.2zm-102.8.2c0-.1 0-.3-.1-.3h-.2c.1.2.1.4.3.3zm101.9.7c.4-.1.6-.4.6-1-.3.2-.7.5-.6 1zm-37.4-.4c0 .9-.1 1.5.1 2.2.5-.4-.4-1.5.3-1.7 0 .2.1.3.2.4.3-.3 0-.8.1-1.2-.3-.3-.4.2-.7.3zm-73.4.1c.3 0 .4-.1.5-.3-.3-.2-.6 0-.5.3zm9.6-.1s0-.1.1-.2c0-.2-.1.1-.1.2zm32.8 0c0 .2.1.4.3.5-.2.2-.5.2-.8.1-.1.1-.3.1-.3.3.1.3.4-.1.7.2 0 .2 0 .3-.1.3-.5-.4-1.4.5-1.9-.2-.6 1.2 1.4 1 1.9 1 .1-.5.3-.8.5-1.2.8 0 1.7-.4 2.4-.7.1-.2-.1-.2-.1-.4.3.1.3-.1.3-.3-.9.6-2.3 0-2.9.4zm4.3-.2c-.4-.1-.6.1-1 .2 0 .6.6.3.9.5 0-.3.1-.5.1-.7zM9.3 53c-.2-.1-.2.1-.3.1-.1.3.3.1.3-.1zm16 .1c.3 0 0-.2 0 0zm6.4 0c.2.2.1-.3 0 0zm13.1 0c.3.1 0-.2 0 0zm43.5 0c0 .1 0 .2.1.3 0-.1.1-.3-.1-.3zm-75.6.4c.2.1.2-.3.1-.3 0 .1-.1.1-.1.3zm94.1.5c-.2.1-.3 0-.6 0-.1-.5-.6-.5-.9-.8 0 .7 1.1 1.1 1.5.8zm-98.7-.3c.2.1.5.1.6 0 .3-.5-.7-.6-.6 0zm78.9-.4c-.1.2-.1.2-.1.5.3.1.2-.5.1-.5zm-77.6.2c.1 0 0 .1 0 0l.2.1v-.2s-.1 0-.2.1c0-.1 0-.1 0 0zm77.3-.1c-.2 0-.4.1-.5.3.2 0 .1.3.3.3.1-.2.2-.3.2-.6zm-65.1.4c.2 0 .2-.1.3-.2-.1 0-.2-.1-.3-.1-.2.2-.1.1 0 .3zm1.2.4c.1 0 .2 0 .2.1.3-.3 1-.2.9-.9-.2 0-.2.1-.5.1.1.5-.5.3-.6.7zm88.4.9c.7.2.7-.4 1.3-.4 0 .1 0 .3.1.3.5-.1 1.1-.6.9-1.2-.4.2-.6.5-1 .8 0-.2.1-.1 0-.3-.5.3-1.2.3-1.3.8zM59.6 54c-.1.1-.1.4.1.3 0-.1.1-.1.1-.3-.1.1-.1 0-.2 0zM34 55.2c-.3-.7-1.1-.8-1.7-1.1-.1.2.1.2.1.4.2 0 .3 0 .3.1-.1 0-.2.1-.2.3.7-.3 1 .4 1.5.3zm43.3-1c-.3.8 0 2 .1 2.8.6-.7.2-2.1-.1-2.8zm-59.2.3c0-.2-.1-.2-.3-.2 0 .3.2.4.3.2zm39.8.7c0-.3 0-.5-.2-.6-.2.1-.3.3-.3.6.1.1.4.1.5 0zm46.1-.6c0 .4.3.6.3 1 .2-.1.3.2.3 0-.3-.2-.2-.8-.6-1zm-62.5.1c.2.7-.1 1.5.5 1.8.2-.5-.3-1.3-.5-1.8zm-37.2.2c0 .1-.1.1-.1.3h.2c.1-.2.1-.4-.1-.3zm10.5.3c.1-.2-.1-.3-.3-.4-.1.2 0 .5.3.4zm42.1.2c0-.2 0-.3-.1-.4-.3.2-.4-.3-.8-.1-.1.1-.1.3-.2.4.1-.3-.1-.2-.3-.2 0 .3-.2.7.1 1 .3 0 .4-.1.8 0 .2-.2.2-.6.5-.7zm-20.5 0c0-.2 0-.3-.1-.3-.1.1-.1.3.1.3zm9.7-.1V55h-.2c0 .2 0 .3.2.3zm2.1.1c-.6.8-2.3 0-2.9.6 1.3.7 2.8-.1 4-.1v-.5c-.4-.1-.6 0-1.1 0zm-32.4.8c.7-1.2-1-.4 0 0zm9.7.5c-.1 0-.1-.3-.3-.2-.1.1-.5.1-.5.4.9.8 2-.5 3.1-.3.1-.2-.2-.2-.1-.4-.7 0-1.4-.1-1.9.2.2-.1.2-.7-.1-.7-.3.2-.1.7.1.8-.2 0-.2.2-.3.2zm7.4-.9c0 .1 0 .2.1.2 0-.1.1-.3-.1-.2zm47.3.3c-.2 0-.5-.1-.3.3.2 0 .4-.1.3-.3zm-58.7.3c.2 0 .3-.1.4-.3-.3 0-.4 0-.4.3zm21.9.5c.3-.5-.4-.9-.5-.3.3 0 .3.3.5.3zm66.9-.4c0 .3.4.3.5.1 0-.2-.1-.3-.2-.3-.1.1-.2.2-.3.2zm-85.9.2c.1-.2-.1-.3-.3-.3 0 .1-.1.1-.1.3.3-.1.3 0 .4 0zm57.8.3c.2 0 .3-.4.1-.5-.1.1-.3.3-.1.5zm-58.5-.3c-.3.1-.2.4-.5.4-.2 0-.4-.2-.2-.4-.6.1-1.4.4-1.8.1.4 1.2 2.2.8 2.9.6.1-.5-.3-.5-.4-.7zm22.8 0v.2c.2 0 .2-.3 0-.2zM44 59.6c-.7-.6-1.2-1.5-1.5-2.4-.3 1.2.9 1.4.8 2.4 0 .1.5.1.7 0zm-29.5-2.1c.4 0 1.1.4 1.2-.1-.4 0-1.2-.4-1.2.1zm-.4-.1c.3 0 .1-.2 0 0zm6.3.2c0-.1-.1-.2-.1-.2 0 .3-.1 0-.2.1-.1.2.2 0 .3.1zm-.6.1c0-.4-.4-.3-.3.1.1 0 .2-.1.3-.1zm4-.1c-.1 0-.1-.1-.2-.1-.1.1-.1.4.1.4 0-.1.1-.1.1-.3zm33.5.5c.1-.1.1-.3.1-.5-.2 0-.3 0-.4.1 0 .2 0 .4.3.4zm-43.1.1c.2.5.8.3 1.4.4v.3c.2 0 .3 0 .3-.1-.2.1-.1-.4 0-.3.3.1.7-.1.8-.3-.6-.7-1.8-.3-2.5 0zm17.2 0h.3c.1-.1 0-.3-.1-.5-.2.2-.3.2-.2.5zm-18.8.3v-.3h-.3c0 .2.1.2.3.3zm15.7 0s.1-.3 0-.3c.1.2-.3-.1-.3.1.1 0 .1.2.3.2zm82.7-.3v.4c.2 0 .4.2.6.2-.1-.4-.5-.4-.6-.6zm-92.7.2v.3c.1 0 .2 0 .3.1-.1.1-.2.3-.3.5.2.1.2 0 .5 0-.2-.4-.1-.6.1-.8-.2-.2-.3-.1-.6-.1zm44.3 0c-.1.2.3-.1 0 0zm-50.1.5c.2-.1.3-.3.5-.5-.3.2-.4.1-.5.5zm-2-.3c0 .3.1.1.3.1 0-.2-.2-.2-.3-.1zm12.1 0c-.1 0-.1 0-.2-.1 0 .1-.1.1-.1.3.1 0 .3 0 .3-.2zm-15.1.3c-.2-.1-.4-.3-.6-.1.1.3.2.6.5.7.2-.2-.1-.3.1-.6zm11.7-.1c.1.3.2.5.5.5.1-.1.1-.2.1-.4-.3 0-.4-.3-.6-.1zm28 .5c.1-.3.1-.3 0-.5-.3 0-.5-.1-.7.1v.4c.2 0 .4.1.7 0zm64.4-.4zM11.1 59c.2.1.4.1.6.2.2-.3-.5-.5-.6-.2zm6.7.2c.2 0 .2-.1.2-.2-.1-.2-.3-.1-.2.2zm28-.2v.4c.2 0 .2-.2.2-.4h-.2zm-11.9 0c-1.6.2 0 1.7 0 0zm11.1.4c.1-.2-.1-.2-.1-.3-.3 0-.6 0-.5.4.2.1.4-.1.6-.1zm-3.2.1c-.1.1-.3.5 0 .5.1-.2.3-.4 0-.5zm17.5.1c-.1.1-.1.3-.1.5.1.1.3.2.5.1 0-.4 0-.7-.4-.6zm-16.7 0c-.1.1-.2.4 0 .5 0-.2.3-.4 0-.5zm-32.8.2c.3 0 0-.2 0 0zm103.4.1c.3 0 0-.2 0 0zm-73.5.4c.3-.1 1 .1 1-.4-.4-.1-1.3-.1-1 .4zm67-.2c.1.1 0 0 0 0zm-102 .4c.8 0 0-.7 0 0zm-.2-.2c.2 0 0-.2 0 0zm-.8 0c-.2 0-.4 0-.4.1.2-.1.5.1.4-.1zm55.6 0c0 .1 0 .2.1.2 0-.1.1-.3-.1-.2zm-22.6.7c-.8-.2-1.7-.4-2.5-.4.5.4 1.8.8 2.5.4zm67.3-.3c-.1 0-.1-.1-.2-.1-.1.2.2.2.2.1zm-68.6.8c-.3-.2-.5-.2-.8 0-.1-.5-.5-.6-.8-.8-.1.1-.2.3-.1.5.6.3.8.9 1.5 1.2-.2-.4.3-.3.2-.9zm47.5-.5c0-.1.2-.1.1-.2h-.2c.1.1.1.2.1.2zm17.8.4c.2-.2.2-.5.5-.5-.1-.1-.5-.2-.6-.1.2.2-.2.5.1.6zm-21.4-.3c.2.3.6 0 .9.1 0-.1.1-.3-.1-.4-.1.2-.6.1-.8.3zm-55.9.1c-.1-.1-.2 0-.3.1.1 0 .2 0 .3-.1zm21.1 0c.5.7.9 1.4 1.4 2.1-.2-.9-.7-1.9-1.4-2.1zm65.4.3c.3.2.5-.1.5-.3-.2.1-.4.1-.5.3zM7.4 61.3c-.1.1-.3.6.2.5 0-.2 0-.5-.2-.5zm11.9.4c.1-.1.1-.5-.1-.5-.1.3-.1.5.1.5zm.5-.4c-.1.1-.1.3.1.3 0-.1.1-.3-.1-.3zm1.9 0h-.2v.3c.2 0 .3-.1.2-.3zm18.9.5c-.4-.3-1.4-.3-1.8-.5 0 .1-.1.1 0 .2.4.3 1.4.6 1.8.3zm13.6-.3c-.2.2-.5.6-.3 1 .6 0 .7-.7.3-1zm-36.1.5c0-.1 0-.2-.1-.2 0 .1 0 .2.1.2zm25.1-.1c.1.2.2-.3 0 0zm-14.3.4c.1-.1.2-.3-.1-.3.1.2 0 .3.1.3zm45.6 0c-.2 0-.2-.1-.3-.1 0 .1 0 .1-.1.2.2 0 .4.1.4-.1zm38.5 0c0 .2-.3.1-.3.3.3.1.5-.2.3-.3zm-77 .6c.1-.4-.4-.4-.4-.1.1 0 .2.2.4.1zm10.5-.3c0 .1 0 .2.1.2 0 0 .1-.2-.1-.2zm-30.3.5c.1.3.5.2.7.4.1-.1.1-.3.1-.5-.2-.3-.6.2-.8.1zm86.8.2c.1.3.4.1.8.1 0-.2 0-.3-.1-.4-.1.2-.8-.1-.7.3zm-11.6-.1c-.2.2.1.4.4.4 0-.1.2-.1.1-.3-.3-.1-.2.1-.5-.1zm-78.6.4c0-.1.2-.2.1-.4-.3 0-.6 0-.5.3.2.1.2.2.4.1zm27.7 0c-.1-.4-.3 0 0 0zm.4.1c.1.2.1-.2 0 0zm-3.1.4v-.3c-.2-.1-.3.1-.3.3h.3zm8.6.1c0-.2-.1-.3-.2-.4 0 .2 0 .3.2.4zm63.5-.3c-.2 0-.3.1-.3.3.2 0 .3-.1.3-.3zm-68.3.1c-.1.1-.1.5.3.4 0-.2 0-.3-.1-.4h-.2zm-31.2.6c0-.3-.1-.4-.3-.4-.1.3 0 .5.3.4zm12.6.2c0-.3-.3-.5-.6-.3-.1.2.4.4.6.3zm-1.3.5c-.1-.3-.3-.4-.4-.7-.2 0-.5-.1-.5.1.5.1.4.6.9.6zm62.1-.5c-1.1.1.3 1 0 0zm36.4.1c0 .1.3.1.2 0-.1-.1-.2-.1-.2 0zm-34.3.7c1.1.4.1-1.6 0 0zm15.5-.7c0 .2-.1.3-.1.5.2 0 .4-.5.1-.5zm19.5.1s.1.1 0 0zm-74.2 0c0 .2 0 .3.1.4 0-.1.1-.4-.1-.4zm-21.1.1h-.2c-.2.1-.1.2-.1.5-.2 0-.2.1-.5.1 0 .1 0 .1-.1.2.2.3.5.1.6-.1 0 .1 0 .2.1.2.5-.2.3-.7.2-.9zm78.1 0c-.1.2-.1.4.1.5.1-.3 0-.4-.1-.5zm-67.9.9c.2 0 .1-.4.3-.5.2.1.2.1.4.1.1-.1.1-.4 0-.5-.5 0-.8.3-.7.9zm-11.2-.7c-.1-.1-.5-.1-.5.1.1.2.6.2.5-.1zm95.3.5c.1-.1 0-.4 0-.5-.5-.1-.6.6 0 .5zm-107.5.1c0-.2-.1-.3-.1-.5-.6 0-1.2.4-1 .9.4-.1.5-.4 1.1-.4zm41.4-.5c0 .1-.1.3.1.3-.1-.1.2-.3-.1-.3zm4.8 2.3c-.7-1.2-2-2-3.6-2.1.8 1.2 2.2 1.9 3.6 2.1zm-9.6-2s-.2.3 0 .3c0-.2.2-.3 0-.3zm27.3.7c.1-.3.3-.5.1-.8-.5-.1-.6.9-.1.8zm-28.7-.2c-.3-.1-.4-.3-.6-.5-.1.4.6.6.6.5zm.1.2c.1-.2.4.1.5-.1-.2-.1-.2-.3-.5-.3 0 .1-.1.4 0 .4zm-20.9.4c-.1-.1-.2 0-.3-.2 0-.1.2 0 .2-.1-.2-.1-.2-.5-.5-.3.3.3.1.5.1 1 .3 0 .5-.2.5-.4zm4.9-.4c0 .6-.5 1-.5 1.5.4-.2.8-1.1.5-1.5zm-17.8.1c.3.1.1-.2 0 0zm63 .1c-.1.1-.2.2-.2.5.1 0 .2 0 .3.1.1-.2.2-.7-.1-.6zm-63 .1c.1 0 .1 0 0 0zm21.8.4c.3.3 1.4.2 1.4-.3-.5.3-1.1-.4-1.4.3zm-3.6-.3c-.1.2-.1.1-.1.4.1 0 .1-.1.3-.1 0-.1.1-.4-.2-.3zm1.4 0c0 .1-.1 0-.2 0-.2.1-.1.3 0 .5.2 0 .4-.4.2-.5zm1.5.4c0-.2 0-.3-.1-.4-.1.1-.5.1-.4.4.1 0 .1.1.1.1.2 0 .3-.1.4-.1zm-21.3 0c.1 0 0 0 0 0zm.1 0c0-.1 0-.1 0 0zm104.1.7c0-.2 0-.4-.1-.5-.6 0-.3 1 .1.5zM3.3 67.7c.3.1 0-.2 0 0zm100 .1c.4.1.2.7.6.7.1-.4-.2-.4-.1-.8-.2 0-.5-.1-.5.1zm-83 .8c1.4-.2-.4-1.5 0 0zm57.2-.7c-.1.1-.3.1-.2.3.2.1.3-.2.2-.3zm-32.8.1c0 .4.1.6.3.7 0-.4 0-.7-.3-.7zm58.8.2h-.2v.3c.1 0 .2 0 .3-.1-.2 0-.1-.1-.1-.2zm-87.4.7c0-.5-.7-.8-1-.5-.1.3.1.3.1.5-.3 0-.4 0-.5.1v.3c.7.8 1.1.1 1.9 0 .5-.2-.1-.6-.5-.4zm62.8-.5c.1.2.1-.3 0 0zm-33.1 0c-.1.1 0 .4.1.5 0-.2.2-.5-.1-.5zm-29 .1c0 1.4 1.3.1 0 0zm84.3.1c.1.2.2-.3 0 0zm-78.3.1c-.2 0-.1-.1-.3-.1 0 .2 0 .3.1.3 0-.1.3 0 .2-.2zm2.8 0c.2.3.1-.2 0 0zm78.3 0s.1.1 0 0zm-1.9.6c.3-.1.3-.1.6.1.1-.6-.7-.6-.6-.1zM74.7 69c.1.3.4.5.8.3 0-.3-.6-.4-.8-.3zm27 .3c0 .1-.3.2-.1.3.1.1.2-.2.1-.3zm-76.9.2c.2.1 0-.2 0 0zm58.6.4c.1-.1.1-.2-.1-.3.1.1 0 .2.1.3zm.2-.1c0 .1 0 .3.3.3.1-.1 0-.1 0-.3-.2-.1-.3-.1-.3 0zm-64.7.5c.2.1.5 0 .5-.3-.1-.1-.5-.1-.5.3zM4.3 70c.2.8-.9.8-.6 1.5.3-.2.6-.4.8-.7.2.2.3.6.4.8.1-.6-.4-1-.6-1.6zm86.1.4s.3-.2.1-.3c0 0-.3.2-.1.3zm4.7-.1c.2.1.5.1.5-.2-.2.1-.4 0-.5.2zm-76.7-.1c-.2 0-.3.1-.3.2.1.1.2-.1.3-.2zm18.7 1.2c0-.2 0-.4-.1-.5-.3 0-.4.6.1.5zm55.1 0c.3 0 .7-.1.7-.4-.4 0-.7 0-.7.4zm-48.4-.3c-.1.1-.1.5.1.5.3-.1.1-.5-.1-.5zm52.3.4c-.4.1-.5-.3-.9-.2 0 .3.9.5.9.2zm-64.1.4c.3 0 .3-.3.3-.6h-.2c-.1.3-.2.4-.1.6zm59.6-.3v-.3c-.2 0-.4 0-.4.2s.3.1.4.1zm25.4-.3c-.2.1-.2.5 0 .7.3-.1.4-.7 0-.7zm-19.9.2c0 .1-.3.1-.2.3.1 0 .1.1.3.1-.1-.2 0-.5-.1-.4zm-76.3.3c0-.1.1-.1.1-.3h-.2c-.1.2 0 .3.1.3zM5 71.7c0 .2 0 .3.1.3 0-.1 0-.2-.1-.3zm44.5 0c-.1.1-.3.2-.3.5.2-.1.2.1.4.1 0-.2.1-.5-.1-.6zm-37.7.1c-.2-.1-.7 0-.6.5.3 0 .6-.1.6-.5zM35.6 74c.1-.2.4-.1.4-.4-1 0-2.2-1.8-.6-1 .5-.8-1.5-1.2-1.2 0-.5.1-.9-.1-.9.5.3.1.6-.2 1-.1.1.7 1 .5 1.3 1zm53.8-2.2c-.2-.1-.7-.1-.6.3.3 0 .5 0 .6-.3zm-80.1.5c0-.8-1.3-.1-.9.7.4 0 .9-.3.9-.7zm67.7.1c.7.1 1.7.2 2-.3-.1 0-1.7-.2-2 .3zm-73.1.3c.2-.1.5-.2.5-.5-.3-.3-.9.1-.5.5zm82.2.9c.6-.2.6-1.2 1.2-1.4-.5-.3-.6.5-1 .4 0 .4-.4.6-.2 1zm-57.7-1.3c-.2 0-.3.1-.3.3h.3v-.3zm53.6.3c.5.1.4 0 .8 0 .1-.5-.7-.2-.8 0zm-63.9.5c.1-.1.2-.5 0-.6-.2.1-.4.6 0 .6zm12 .2c-.1-.2.1-.7-.1-.7-.1.3-.2.5-.2.9-.5.1-1.1.1-1.3.4.7 0 2.6.1 2.9-.7-.5.1-1 .3-1.3.1zm14.9-.6c-.1.1-.1.2-.1.3.3 0 .2-.3.1-.3zm-35.1.2c-.3-.3-.5.1-.8.1.1.4-.3.5-.3.9.2.1.3.3.5.5 0-.2-.1-.3-.2-.5.3-.3.7-.5.8-1zm63.1.6c-.4-.5-1.7-.8-2-.2.5.3 1.4.1 2 .2zm41.3-.6c-.1.2-.2.3 0 .5.2 0 .1-.1.3-.1V73c-.1-.1-.1-.1-.3-.1zm-81.4.1c-.4 0-1 0-1.2.3v.1c.3.1 1.4 0 1.2-.4zm31.4-.1H64c0 .3.1.3.3.3v-.3zm-43.4.2c-.1 0-.1-.1-.2-.1-.1.1-.1.5 0 .7.3 0 .2-.4.2-.6zm51.2.7c-.3.1-.8 0-.8.5.2-.1.8-.1.8-.5zm13.5.1h-.2c0 .2-.1.3.1.3 0-.1.2-.1.1-.3zm-60.5.6c-.4.1-1.1-.1-1.2.5 1.1-.2 2.6-.3 3.5-.9-.5-.2-1.5.2-2.3.4zm65.5-.3c-.4 0-1.3-.1-1.6.3.5-.1 1.3.3 1.6-.3zm5.5.1c-.1 0-.1.4 0 .4.4-.3.7.2.9-.2-.2-.3-.7 0-.9-.2zm-27.4.4c0 .1 0 .2-.1.3.5.1.7-.1 1.2-.2-.1-.8-.7-.1-1.1-.1zm19.6.1c-.3-.2-1.5.1-2-.3-.1.2-.5.2-.3.5.5 0 2.1.4 2.3-.2zm-5.4.1c.4.2 1.9.4 2.1-.3-.7.2-1.8-.3-2.1.3zm-59.1.2v-.3c-.3-.2-.8 0-.5.4.2-.2.3 0 .5-.1zm-3.3-.1c0 .2 0 .3.1.3 0-.1.1-.1.1-.3h-.2zm83.5.1c-.3-.1-.6 0-.5.3.2-.2.5-.1.5-.3zm-32.3 1.1c-.1-1.6-1.2-.7-1.9-.3 0 .5.3.7.3 1.1.4.1.3-.3.5-.3.1.8.5 1.2.5 2.1.3-.9-.9-2.8.6-2.6zm23.9-.9c0 .1 0 .2.1.2 0-.1.2-.1.1-.2h-.2zm-31.9 1.2c.4-.2 1.1-.1 1.1-.6-.5 0-1 .1-1.1.6zm-35.8 0c-.1 0-.1-.1-.2-.1-.1.2-.2.3-.2.5.3.1.4-.1.4-.4zm-1.1.2c0 .2-.2-.1-.3-.1-.1.2.2.3.3.3.1 0 .1-.1 0-.2.1 0 .1 0 0 0zm52.5.9c.4.2 1.2.1 1.8-.1 0-.9-1-.6-1.5-.6 0 .2.2.2.1.5-.1.1-.4 0-.4.2zm-24.6-.8c-.2.2-.1.5.1.6.2-.2.1-.5-.1-.6zm27.1.1c-.1.4.3 0 0 0zm-55.8.3v-.3h-.2c0 .2 0 .4.2.3zm14.8-.2c-.5.1-.5.4-.1.6.5.2 1.6.8 1.7.2-.1-.5-1.4-.9-1.6-.8zm20.2.6c.2-.1.6-.1.8-.3-.1-.6-1.1-.2-.8.3zm-36 0c0-.1.1-.1.1-.1 0-.3-.1-.4-.5-.4-.1.3 0 .6.4.5zm42 .2c.1-.1.2-.2.2-.3-.4-.2-1.7-.5-1.8.2.6.1 1.1-.2 1.6.1zm-11.5-.6c-.1.2-.2.3-.2.7.4.1.5-.2.5-.5-.2 0-.2-.2-.3-.2zm20.2.4c.4.2 1.2.4 1.2-.3-.4.2-1-.2-1.2.3zm-15.2 0c-.4 0-.9.2-.8.5.3 0 .5-.1.8-.2v-.3zm-38.6.9V78c-.3.1-.5-.1-.6-.3h-.1c-.2.1.1.6-.2.7-.4-.3-.9 0-.8.7.8.4 1.1-.4 1.7-.6zm47.7-.3c-.3-.1-1.7-.2-1.4.6.4 0 1.6 0 1.4-.6zm-11.2.5c.4 0 .7-.1.7-.5-.4 0-.8 0-.7.5zm23.8-.3c-.5-.1-1.9-.1-2.4.4.5 0 1.9.3 2.4-.4zm-71.1.3c-.5 0-.4.3-.5.8.4-.1.6-.5.5-.8zm3.9.2c-.2.4.4.7.7.5.1-.5-.4-.6-.7-.5zm42.3.1c-.3 0-.5.2-.5.5.4 0 .5-.2.5-.5zm-6.4.8c-.4.1-.9.8-.4 1 .1-.3.4-.5.4-1zm-40 .7c.3.2.2-.2 0 0zm22.2.3c-.2 0-.3.1-.3.3.2 0 .2-.2.3-.3zm13.7 0c-.3-.2-.8.2-1 .1-.1.6 1 .5 1-.1zm-13.6.5c-.2.4-.2 0-.6.1 0 .1 0 .3.1.3.2 0 .9-.1.5-.4zm85.7.1s0 .1 0 0zm-108 1.2c.1-.3.3-.5.3-1-.1 0-.1-.1-.2-.1-.3.1-.4 1-.1 1.1zm26.2-.7c.3 0 .3-.1.3-.3-.2-.2-.5.1-.3.3zm-.4-.2c0 .2-.3.1-.2.4.2.1.5-.3.2-.4zm-15 .2c0 .4.6.7.8.5 0-.5-.3-.6-.8-.5zm3.5 1.5c.3-.3.7-.5 1-.8-.2-.2-.4-.4-.5-.7 0 .6-.7.9-.5 1.5zm76.6-1.2c.2 0 .4 0 .5-.1-.2 0-.6-.1-.5.1zm1 0c0 .1 0 .1-.1.2.2 0 .3.1.5.1 0-.1.1-.1.1-.3-.2.1-.3-.1-.5 0zm-55.3.1c.3.1.1-.2 0 0zm-34.6.2c0 .1-.1.1-.1.3.2.1.2-.3.1-.3zm38.6.1c-.3.2.1.5.1.8.3 0 0-.5-.1-.8zm45.4.6c.1 0 0-.1 0 0zm-85 .2c.1.2.2-.2 0 0zm11.8 0c-.1.1-.1.2.1.3 0-.1 0-.3-.1-.3zm-10.5.5c0-.1 0-.2.1-.3-.2 0-.4 0-.4.3h.3zm.2 0c.2 0 .2-.1.2-.3-.1 0-.2 0-.3.1.1.1.1.2.1.2zm1.5 0c-.5-.1-.8.2-.8.7.3-.1.5-.2.8-.3v-.4zm15.4.2c-.1 0-.3 0-.3-.1-.2.5-.5 1.4.1 1.6.2-.3.4-.9.2-1.5zm85.8.2c.2.1.4.1.5-.1-.1-.1-.5-.1-.5.1zm-23.1 0c.3 0 .1-.2 0 0zm-.5.1c.1 0 0-.1 0 0zm20.5 0zm-21.6.3c.3.1 0-.2 0 0zm-.1.1c.1.1 0 0 0 0zm-.8.2c.3 0 .1-.2 0 0zm-18.3 0c.1.1.1.5.4.5 0-.2-.1-.4-.1-.5-.1 0-.2-.1-.3 0zm18.1 0c.3.1 0-.2 0 0zm-74.1 0c0 .1-.1.1-.1.2.2.1.2-.2.1-.2zm59.2 7.9c-.2-.3-.9-.1-.9-.6.1 0 .3.2.3-.1 0-1.8-.5-3.5-1.2-4.8-.2 0-.3 0-.4-.1-.2-.5-.1-1.3-.6-1.5-.2 0 .1.3-.1.3.1-.4-.3-.3-.2-.7-.1 0-.1.1-.2.1 0-.3 0-.5-.1-.6-.5.7-.2 1.7.3 2.2.1-.1 0-.5.1-.6.1.1.2.2.2.3-.5.4-.2 1 .1 1.5-.7 1 .7 2.3.2 3.5-.9-.5-1.8-.6-2.7-.9-1.1-.4-2.8-1.1-3.6-1.2-1.1-.1-2.2.7-3.2.6.2.2.4-.1.5.1-.2.2-.6.1-.6.4.8.1 1.8-.4 2.6-.5 1.3-.3 3.4.8 4.9 1.1 1.2.2 2.9.7 3 1.8.2-.2.1-.6.5-.7 0 .1.1.1.1.3.1-.2.6.5 1 .1zm-51.8-7.4c0-.1.3-.3.1-.5-.1.2-.4.4-.1.5zm33.6-.1c.1.7.5-.1.6.3.4-.4-.3-.6-.6-.3zm-17.5.5c.4.1 1.2 0 1.2-.5-.3 0-1 0-1.2.5zm-17.3-.2c-.1.2-.1.5.3.5 0-.1.1-.2.1-.4-.1-.1-.2-.1-.4-.1zm37 .8c.5-.1.8 0 .8-.6-.3.1-.4 0-.8 0 0 .2-.1.4 0 .6zM16.3 86c0 .1-.1.1 0 0 0 .1 0-.1 0 0zm-.1.1c0 .1 0 .1 0 0 0 .1 0 .1 0 0zm57.1-.1c-.3 0-.2.3-.2.5.2 0 .2-.3.2-.5zm42.7 0c-.1-.1-.3.2-.1.2 0-.1.1-.1.1-.2zm-100.5.7c.1.3.1-.2 0 0zm97.7.2c-.2 0-.3-.1-.3.1.2 0 .3 0 .3-.1zm-53.8.6c-.3-.1-.4-.2-.7-.3-.4.6.7 1 .7.3zm57.3.2c.1.1.4.1.6 0 0-.6-.6-.5-.6 0zm-52-.2c-.2.2.2-.2 0 0zm45.7 0c-.1.3.5.2.4-.1-.1.1-.2.2-.4.1zm-33 .3c-.1.2-.1.4-.2.8.4 0 .5-.8.2-.8zm.3.2c-.1.1 0 .3.1.4 0-.2.2-.4-.1-.4zm-31.1.9c0-.3 0-.7-.1-.9-.2.3 0 .7.1.9zm61.3-.7c-.1-.1-.3 0-.3.2.2.1.3 0 .3-.2zm9.1.2c0-.1 0-.2-.1-.3 0 .1-.1.1-.1.3h.2zm-63.9-.2c0 .2-.1.6.1.8 0-.1.2-.7-.1-.8zm53.3.3c.2.2.1-.2 0 0zm-28.5.3c0-.2 0-.3-.1-.3-.2.1-.1.4.1.3zm-18.7-.1c-.1-.1-.6-.1-.7.1.1.1.6.2.7-.1zm-.8.2c-.4 0-.8 0-.7.3 0-.1.6 0 .7-.3zm44.9.4c0 .1 0 .2.1.2 0 0 .2-.2-.1-.2zm-73.9.9c.2.1.3-.3.1-.4 0 .2-.1.2-.1.4zm24 1.4c.1-.1.2-.5 0-.7 0 .2-.1.6 0 .7zm42.7-.5c0 .1-.1 0 0 0zm15.6.4c-.2-.6-2.7.4-1.1.7.1-.5.8-.5 1.1-.7zm-50.7 0c-.2 0-.2-.1-.5-.1 0 .1-.1.1-.1.3.3 0 .6-.1.6-.2zm-31.6.8c-.3.1-.1-.3-.4-.3 0 .3.1.5.1.7.2 0 .3-.1.3-.4zm78.3.4c.8.1 2 .2 2.7-.1-.6-.1-2.3-.2-2.7.1zm-.5-.2c0 .2 0 .3.2.3.1-.2-.1-.3-.2-.3zm6.1.2c.3 0 0-.2 0 0zm-8.6.2c.1-.1.5.2.6-.1 0-.1-.6-.2-.6.1zm-12.1-.1H92c.1.2.6.2.6 0zm7.1.1c.1.2.1-.3 0 0zm1.4-.1c-.2 0-.4 0-.4.2.2-.1.2.1.4.1 0-.1-.1-.1 0-.3-.1.1 0 .1 0 0zm3.7.2c.1 0 0 0 0 0zm-52.3.6c.1 0 .5-.2.3.1.2 0 .2-.1.2-.3-.2 0-.4.1-.5.2zm-19.4.2c-.3-.1-1.2-.2-1.3.1.1 0 .1.1.1.1.4-.2 1 0 1.2-.2zm15.3.2c-.2-.3-1.2-.3-1.8-.3 0 .1 0 .2.1.3.1-.1 0-.2.2-.2.4.4 1.3.2 1.5.2zm-3.8 0c-.3-.3-.2.2 0 0zm.6 0v.2c.3.1.9 0 .8-.3-.1.1-.7-.1-.8.1zm-22.4 1.2c1.7-.3-.4-1.6 0 0zm57.1-.8c.1.4.6.4.8.1-.2.1-.5-.1-.8-.1zm-57.6.7c-.1-.1-.2.1-.4.1-.1-.4-.8-.9-1-.3.1.2.7-.1.7.2 0 .3-.2.3-.1.5.2.3.7.2.9 0-.1-.2 0-.4-.1-.5zm5.2.9c0-.3.1-.3.1-.6-1-.1-1.7-.7-2.6-.7-.3.9.3 1.4 1.3 1.4.2-.1.2-.4.5-.4.3.1.3.4.7.3zm21-.9c0 .5-.2.7-.2 1.2.2-.2.4-1.1.2-1.2zm-24.2 1.2c0-.1 0-.1.1-.1-.6-1.5-2 .2-.1.1zm-5.9.3c.3 0 .3.2.5.1.1-.4.5-.5.6-1-.5 0-.9.4-1.1.9zm81.3-.6c0 .4.3.1 0 0zm-70.3.3c0 .1 0 .2.1.2 0-.1.1-.3-.1-.2zm29.9 1.2v.3c.4-.1.5 0 1-.1 0-.5-.8-.6-1-.6.1.1.3.2.3.4-.2.1-.2 0-.3 0zm12.6-.3c-.1 0-.2.1-.2.2h.2v-.2zm-14.2.9c.3-.1.6-.2 1-.3.1-.3-.1-.3-.1-.5-.5 0-1.1.3-.9.8zm-33.4-.3c-.4.1-.6.4-.8.6.3 0 1 0 .8-.6zm35.1.7c0-.2-.2-.6-.4-.5.3.1.1.6.4.5zm-33.9-.4c0 .1-.1.1-.1.2.2.1.2-.2.1-.2zm-2.1.3c0-.1-.2 0-.3.1.2-.1.3.2.3-.1zm.7.1c0 .2-.1.2-.1.3h.4c-.1-.2-.2-.3-.3-.3zm23.4 1.4c.1-.4.5-1.1.3-1.4-.3.2-.4 1.2-.3 1.4zm21.1-1.2c-.2 0-.1.1-.2.2.1 0 .2-.1.2-.2zm-46 .3c0 .1 0 .2.1.3 0-.2 0-.3-.1-.3zm27.6.2c.1.3.8.4.8.1-.3 0-.4-.2-.8-.1zm2 .5c0-.3-.7-.6-.6-.1.2.2.5.1.6.1zm-28.3-.2c0 .2.1.3.2.5.6.1.2-.9-.2-.5zm4 .1c-.2.3.4.1 0 0zm.5.5s0 .1 0 0zm6.7.3c.1 0 0 0 0 0zm-21.9.1c-.3.3-.9.1-1 .5.4.2 1.3-.2 1-.5zm4.1.1c.2.2.2-.2 0 0zm-.3.2c.1 0 .2 0 .3-.1-.1-.1-.3-.1-.3.1zm6.4 0c0 .2 0 .4-.1.6.4-.1.5-.6.1-.6zm-6.8.1c.3.1 0-.2 0 0zm17.5.1c0 .2.1.5.3.5 0-.3.1-.3 0-.5-.1-.1-.2-.1-.3 0zm-18.6.2s.1.1 0 0zm-.1 0c-.2 0-.3.1-.4.2.2 0 .4 0 .4-.2zm-1 .2c0 .3.1.4.2.5.1-.1.1-.2.1-.5h-.3zm14.8.1c0 .3.3.3.5.2 0-.3-.3-.3-.5-.2zm-7.1.7c.2 0 .2-.2.3-.3-.2-.1-.4.2-.3.3zm15.5-.2c.2.5.4 1 .5 1.6 0-.2.1-.2.3-.1 0 .4.1.5.1.8.2 1 .1 0 .2-.8-.7-.3-.6-1.5-1.1-1.5zm41.7.2c.3.2.7.1 1.1.2 0-.1 0-.1.1-.1-.1-.5-1-.4-1.2-.1zm-13 .6c0-.3-.3-.3-.5-.5 0 .2-.3.5-.1.7.2 0 .5.1.6-.2zm-.6-.3c0-.1-.5-.1-.4.1.1.1.4.2.4-.1zm46.9.8c0 .2 0 .5.1.5.2-.1.1-.5-.1-.5zm-56 1.9c-.1.2.2-.2 0 0zm17.5 0c-.1-.1-.2-.1-.3 0 .1.3.1 0 .3 0zm-2.7.3c-.4-.1-.6 0-1-.1-.1.1-.1.2-.1.3.4-.1.8.2 1.1-.2zm1.2-.2c-.2-.1-.3.3-.1.3 0-.1.1-.1.1-.3zm-37.2.2c0 .1-.1.3.1.3 0-.2 0-.2-.1-.3zm-19 .2l.2.1c0-.1-.1-.2-.2-.1zm18 .3c-.1-.2-.6-.1-.5.3.3 0 .5-.1.5-.3zm24.9.2c0 .1-.1.2-.1.4.3.2.9 0 1 .3.1-.1.1-.5 0-.5-.3.3-.5-.4-.9-.2zm-5.3.4v-.3h-.2c0 .2 0 .3.2.3zm14.1.3c-.2-.6-1.4-.3-1.9.2.4-.2 0 .1.1.1.5.3 1.9.1 1.8-.3zm-24.5 0c.2.1.3-.2.1-.3 0 .1 0 .2-.1.3zm42.9.8c.4-1.5-1.2-.3 0 0zm-34.2-.7c-.1 0-.1-.1-.3-.1 0 0-.2.3 0 .3.1-.1.3-.1.3-.2zm58.6 0c0 .2-.2 0-.2.3.1 0 .1.1.3.1 0-.1.1-.4-.1-.4zm-23.9.7c.1-.1.1-.5-.1-.5-.1.3-.1.5.1.5zm24.6.2c.1-.2 0-.3.1-.5-.1 0-.1 0-.2-.1-.1.2-.3.6.1.6zm-46.5-.4c-.1.1-.1.2.1.3-.1-.1 0-.3-.1-.3zm48.5.5c0-.2-.1-.2-.2-.3-.3.3-.7.6-1 .3 0-.1-.1-.2-.1-.4-.4-.1-.6.3-.5.5s.1-.1.3-.1c.2.6 1 .7 1.3 1 .3-.3-.6-1 .2-1zm-35.5-.1c-.4.2.2.2 0 0zm.4.1c-.4 0-.1.2 0 0zm-20.5.1c0 .2-.5.4-.1.6-.1-.2.4-.5.1-.6zm-38.7.8c.1-.3.1-.7-.3-.7-.1.4.1.6.3.7zm45.7-.2c0-.1.2 0 .2-.2-.1-.1-.4.2-.2.2zm-44.5-.1c-.1.2.4.3.5.2-.1 0 0-.1 0-.2h-.5zm45.7.1s.1.1 0 0zm-49.1.2c.1.2.1-.2 0 0zm55.9 0c-.1.2-.2.4-.2.7.2 0 .3-.6.2-.7zm-15.5 0c-.1.1-.2.2-.1.5.1 0 .2-.4.1-.5zm-40.2.2c.2.6.9 1 1.3 1.3-.5-.3-.8-1.2-1.3-1.3zm21.2.2c.1.2.1-.3 0 0zm26.3-.1c-.1.1-.5 0-.6.1 0 .1 0 .3.1.3.3 0 .3-.2.6-.1-.1-.1.1-.3-.1-.3zm1.7.6c.1-.1 0-.4-.1-.5 0 .2 0 .3-.1.4.1 0 .1 0 .2.1zm-11-.2c-.1.1-.1.2 0 .3.3 0 .2-.3 0-.3zm.8.1c-.1 0-.2-.1-.3-.1-.1.2-.1.4.1.5 0-.3.3-.2.2-.4zm-2.2.1c-.2.1-.2.8-.2 1 .4-.1.7-.8.2-1zm9.4 0c0 .2-.1.3-.1.5.3 0 .5 0 .5-.3-.1 0-.2-.2-.4-.2zm2.3.3c0 .2 0 .4.1.4.2-.1.2-.5-.1-.4zm-2.7.1c0 .1 0 .2.1.2 0-.1.1-.3-.1-.2zm4.9.3c.1.3 0-.2 0 0zm-49.5 0c.1.2 0 .3.2.5.2-.2 0-.4-.2-.5zm.6.9c-.2 0-.1-.4-.3-.5-.1.2.2.6.3.5zm88.1-.3c.3.1.1-.2 0 0zm-87.5.1c0 .1-.2.2-.1.4.2 0 .2-.3.1-.4zm70.8.5c0-.2.1-.5-.1-.5 0 .2-.1.5.1.5zm-38 .3c0-1.3-1 .2 0 0zm14.9-.2c.2-.3.7-.3 1-.2 0-.1.1-.1.1-.3-.7.1-1.7 0-2.3.3.3.4.8-.2 1.2.2zm-48.3 0c.1 0 .1.2.2.2.1-.2-.1-.4-.2-.2zm28.6 0c.2 0 0-.2 0 0zm1.2-.1c0 .2 0 .3.1.3 0-.1 0-.3-.1-.3zm24.9 1.4c.1 0 .2 0 .3.1 0-.5 1.1-.7.6-1.3-.2.5-.7.6-.9 1.2zm-4.3-.7c-.1 0-.3 0-.3.1-.1.4.4.3.3-.1zm-42.2.3c0 .1-.1.1-.1.2.2.1.4.4.6.2.1-.4-.4-.4-.5-.4zm5.6 0c0 .1-.1.1-.1.2.2.1.2-.3.1-.2zm28.9 0c-.1 0-.1-.1-.2-.1 0 .2-.2.5-.1.7.1-.2.3-.3.3-.6zm-32.6.1c.2.1 0-.2 0 0zm3.9.3c.5-.1 0-.5 0 0zm-3 .1c.2 0 .4.2.6 0 0-.3-.7-.4-.6 0zm3.5 0c0-.1 0-.1.1-.2-.1-.1-.2-.1-.3-.1-.1.3 0 .3.2.3zm-.9 0c-.1.1-.1.3.1.3 0 0 .1-.4-.1-.3zm-3.3.1c0 .2-.1.1-.1.3.2 0 .3-.3.1-.3zm43.7.3c-.7.1-1.8-.1-1.9.8.6 0 1.5-.3 1.9-.8zm-38.2.4c.1 0 .1.2.3.1v-.3c-.1.1-.3.1-.3.2zm39.6.3c0 .1-.1.2-.1.4.3.1.2-.4.1-.4zm10.9.5c.1-.3-.5-.3-.5-.1.1 0 .1.1.1.2.2-.1.1-.1.4-.1zm-66.4.6c.1 0 .2-.1.2-.1-.1 0-.2 0-.2.1zm70 0c-.7 0-.6.4-.6.8.2-.1.8-.2.6-.8zm5.6.2c.1.2.7.2.8 0-.2-.1-.6-.3-.8 0zm-34.6.3v.3c.3 0 .5.2.8.3.1-.5.5-.2.6-.7-.5-.1-.7.3-1.4.1zm27.4.1c0 .1-.2.3 0 .4 0-.1.2-.3 0-.4zm9.8 1.4c.5 0 .9-.1 1.2-.1.3-1.1-1.2-.4-1.2.1zm-35.7-.4c0 .1-.1.1 0 .2 0 0 .1-.1 0-.2zm4.7.2c-.1.1 0 .2.1.3.1 0 0-.2-.1-.3zm-8.8.9l.1-.3h-.1v.3zm.8-.3v.2c.1 0 .2-.1.2-.2h-.2zm9.4 1.2c0-.3-.4-.2-.5-.3 0 .2-.2.1-.2.4.3.2.3-.1.7-.1zm4.6.3s.2-.3 0-.3c0 .1-.2.3 0 .3zm.7-.1c0 .2-.1.3-.1.5.2-.1.2-.1.4-.1 0-.3-.2-.3-.3-.4zm-10.6.5c-.1.1-.4 0-.5.1.1.2.1.5.3.6.2-.1.4-.5.2-.7zm2.2.1c0 .1 0 .1 0 0 0 0 0-.1 0 0zm-4.4.7c0 .1-.2 0-.2.2.1 0 .1.1.2.1s.2-.3 0-.3zm17.8.1c-.1.1-.1.2-.1.4.2 0 .3-.1.3-.4h-.2zm7.1 0c-.2.2.3.2 0 0zm-25.2.1c0 .1-.1.1 0 .2 0-.1.1-.1 0-.2zm-.7.7c.2-.1.4-.2.5-.4-.1-.3-.7 0-.5.4zm18.1-.4c0 .1.1.2.1.2 0-.1 0-.3-.1-.2zm9.1.6c0-.1.2-.1.1-.3-.1-.1-.2.2-.1.3zm-44.1 0h-.3c-.1.3.3.2.3 0zm.6.1zm-3-118.4s-.1.1 0 0c-.1.1 0 .1 0 0zm0 0c0-.1 0 0 0 0zm1.5 0c-.2 0-.3.1-.4.2.1.1.3 0 .4-.2zm-3.1.2c.2.2-.2-.2 0 0zm1.4 0c.2.2-.2-.2 0 0zm-2.8.8c.1 0 .1.1 0 0zM36.5 7c.2.1-.1-.2 0 0zm3.8.3c.2.1.2-.3 0 0 0-.1-.1-.1 0 0zm-5.6.8c-.1 0 0-.1 0-.2-.2 0-.3-.2-.4.1.1 0 .1 0 .2-.1.1.1.2.4.2.2zm5.9 0c.1 0 .1.3.2.1-.2.1.2-.2 0-.2-.1.1 0 .1-.2.1.1-.1-.1 0 0 0zm-1.6.1c.2.7.1-.2 0 0zm-3 .1c-.2.2.1-.2 0 0zm.1.3c.2.1-.1-.2 0 0zm-1 .6c.1-.2-.2-.5-.3-.2.1 0 .1 0 .2-.1 0 .1 0 .2.1.3zm2.6-.4c0 .1-.1.4 0 .5 0-.2.1-.3.2-.4-.1 0-.2 0-.2-.1zm-3.2 1c0-.1-.2-.1-.2 0 .2 0 .5.2.7 0-.2-.1-.2-.2-.3-.2-.1-.3.2-.2.1-.5-.3.1-.1.5-.3.7zm2.4-.7c0 .1 0 .2-.1.3 0-.1-.1-.2-.1-.1.1 0 .1.1.1.1.1 0 .1-.1.3-.1-.1-.1-.1-.2-.2-.2zm-2.5.3c0-.1 0-.1-.1-.1 0 .1-.2 0-.2.2.2 0 .3 0 .3-.1zm3.3 0s0-.1 0 0zm.5.2c.1 0 .1.1.1.1.1 0 .4.1.3-.1-.2.1-.4-.1-.4 0zm-.1.4h.2c0-.1-.1-.3-.1-.4-.2 0-.4 0-.3.2.1-.1.4.1.2.2zm-3.3 0c.2 0-.3.1 0 .2.1-.2.2.1.3.1 0-.1.2-.3 0-.3 0 .5-.1-.3-.3 0zm-.5.2c-.2.2.2-.2 0 0zm-.5 1.2c0 .1 0 .1 0 0zm-.1-.3c0 .1-.1.1-.1.2.1 0 .2.1.2.2-.1-.3.1-.3-.1-.4zm5.4.4c0 .1 0 .3.1.1 0-.2-.3-.2-.1-.1zm.8.9c.1 0 .2.1.4.1v-.7c-.1 0-.2-.1-.3-.1-.3.3 0 .1-.1.7zm-.6 1.3c-.2.2.2-.2 0 0zm3 5.2c.8-.1 1-.7 1.9-.8.4-.7 2-.5 1.6-1.8-.8 0-.9.9-1.6.8-.2.3-.7.6-.8.5 0 .4-.7.6-1.1.6 0 0 .1 0 .1.1-.2.2-.3.3-.1.6zM81 17.3c0-.3.3-.2.3-.4-.1 0-.1-.1-.1-.1-.1.1-.3.4-.2.5zm23.7 9.3c-.2-.1-.4.2-.5.5 1.6.7-.7 1.4-.7 2.1.1-.1.1-.3.3-.2-.1.1-.2.5.1.5.4-.6 1-1 1.5-1.5.1.1.3.2.4.1-.3-1.8.1-3.3 1.5-3.8-1.2-1.9-1.9 1.3-2.6 2.3zM7.5 39.2h-.3c-.2.3.1.8.3.7-.1 0 .2-.5 0-.7zm5.2 1.7c.1-.3.3-.6.4-1-.6-.1-.7.6-.7.9 0-.2.1.2.3.1zm54.2 2.6c.8.3 1.6.1 2.4.3-.1-.6-1.2-.2-1.5-.7-.4 0-1.2-.1-1.7-.4-.5.4-1-.4-1.6.1-1-.9-2.9-.5-4 .2-.1-.1-.1-.4-.4-.3 0 .2.1.3.1.5-.7.2-1.8 1.2-.9 1.9.2-.3-.1-.3-.2-.3 1.4-2.4 5-2.4 7.5-1 .2-.2.2-.3.3-.3zm-57.8-.7c.5.1.3.8.8.8.3 0 .6-1.1 1.3-.8-.2-.5-1.8-.4-2.1 0zm42 1.6s0-.1 0 0c.1 0 0 .2.2.1 0-.1.1-.1.1-.3-.2 0-.2.2-.3.2zm38.1 4c.1 0 .1.1.2.1l-.2-.1c0 .1 0 .1 0 0zm-.1 0c.1 0 .1 0 0 0 .1 0 .1 0 0 0zm1.1.4c-.1-.1-.5-.2-.6-.1.1 0 0 .1 0 .1h.6zm23.8 3.6c-.2.1-.4.2-.5.2.2.1.6.2.5-.2zm-83.2 3.5c.4-.2.5-.5.7-.8-.9.2-1.8.5-2.6.8.1 0 .1.1.1.2-.1.1-.6 0-.6.3.4.2.5-.2.8-.3.4.6 1.1-.1 1.6.1-.3.1-.4.3-.5.6 1.8.2 2-1.4.5-.9zm-13.6 2.5c0-.1.1-.1.2-.1.1-.2-.1-.2-.1-.3.1 0 .1 0 .2-.1.1.1.2.3.5.3-.1-.9 1.2.3 1.1-.5-.1-.7-1.8-.1-2.4.1.4.1.5.5.5.6zm38.3 1.4c0 .2 0 .4.2.4.2-.3.8-.6.7-1-.4.1-.4.6-.9.6zm57.1-.4c0-.1 0-.1.1-.2-.1 0-.4-.1-.4.1.3.2.5.2.8.5 0-.1.1-.1.1-.1-.1-.2-.4-.4-.6-.3zm-68.6.8c0 .1 0 .1 0 0zm0 0c-.1-.1-.1-.1-.1-.2 0 .1.1.2.1.2zm-29.3.1c0 .1-.1.1 0 0zm63.2.8c-.2-.1-.7 0-.5.2.1-.1.6.1.5-.2zm31.5.2s0 .1 0 0zm.1-.1s0 .1 0 0c0 .1 0 .1 0 0zM5.2 72.2c0-.1 0-.1 0 0 0 .2-.1.3 0 .6.1 0 .3-.1.4-.1.1-.4-.2-.4-.4-.5zm83.6 2.2s-.1 0 0 0c0 0 .1-.1 0 0zM25.1 85.6c.2.2-.2-.2 0 0zm-9.9 1.9c.1.1.2 0 .3-.1 0 0-.3 0-.3.1zm65.6 7.1c-.2.3.5 0 0 0zm-65.6.6c-.4.6-1.2-.3-1.5.4.5.4 1.7-.1 1.5-.4zm8.8 2c0-.1.1-.1.1-.2-.1 0-.1-.1-.2 0s0 .1.1.2c-.1 0-.1 0 0 0zm30.1 2.7c-.1-.2 0-.2-.1-.3-.1.3-.6-.1-.8.2.3.2.5 0 .9.1zm-19.2 1.5c0-.3.2-.7.1-.8 0 .2-.2.5-.1.8zm31.1 5.8c.1-.4-.3-.1 0 0zm-7.8.7c0-.2.4-.4.2-.6 0 .1-.3.4-.2.6zm27.7.5c.1 0 0 .1 0 .2 1.1.1 2.2.2 2.9-.4-1.3.1-2.2.2-2.9.2zm-19.4.5c.1-.2-.3-.2 0 0-.1-.1-.1.1 0 0zm5.1 1.8l.3-.3c-.1 0-.5.1-.3.3zm21.6.2c-.1.1.1.4.1.2 0 0 0-.2-.1-.2zm.8.2c.2.1-.2-.2 0 0zm-27.1 2.5c.1-.3-.2.5 0 0zm-1.4 2.9c-.3.3.2.7.3.5-.1-.1-.1-.4-.3-.5z"/><path d="M60.5 22.4c1.8 0 3 .5 3.5 1.4.5 0 .8.4.8 1.2 0 1.5-2.6 7.2-7.8 17.4-2.2 4.5-5.9 9.5-11.1 15.2C42.7 60.5 38.8 62 34 62c-3.7 0-6.2-1.8-7.8-5.4-.3-.5-.4-1.2-.4-2.2v-.8s.8-8.4 2.6-11.7h.4c1.1.5 1.7 1.4 1.8 2.2.3 0 .4-1.2.4-1.2h.8v2c-.1 0 0-.3 0-1h.4l.2.4c.5 0 .9-.9 1.4-2.6l.8-.2c0 .8 1.2 1.2 1.2 1.2v-.8h.4l-1.2 11 .4 2h.4c2-.6 4.9-3.7 8.7-9.3 3.4-5.1 6.7-11.5 10-19.4 0-2 2-3.4 6-3.8zm35-.5h.4s1.5.6 2.5 1.6l.2.4h.3l-.2.8.2 2.7c-.2 2.3-1.1 3.5-2.5 3.5h-1.2s-12.3 1.3-20.4 5h.1s15.9 2.7 16.9 4.7c1 .6 1.5 1.6 1.5 2.9-.4 4.6-.9 6.9-1.7 6.9-3.1 2.4-6.6 4.2-10.4 5.6-5.7 2-13.6 4.2-23.6 6.7l-.8-.2v-.2l2-.6v-.4l-2 .4v-.2c0-.3.3-.5 1-.6v-1h-1 1l-1.7-.4.7-.2v-.6c-1.1 0-1.3-.2-1.3-.6l-.2-.2h-.5l1-.2v-.8h-1.2c0 .3-.2.2-.8.2v-.2c.2-.7 5.8-2.7 17.1-5.9 7.5-2.6 11.8-4.3 13-5.2-11.8-.8-17.8-2-17.8-3.8-1.4-.9-2.1-2.2-2.1-4 0-1.6.8-3.5 2.5-5.6 10.2-7 29-10.5 29-10.5zm-37.7 37zm6.1 6h1.5c1.8 0 3.3.8 4.4 2.4v.6l-8 19.8c-1.9 3.5-3.8 8.4-5.7 14.8l-.6.4h-.6l-.8-.4-.2 1.4h-.4l-1-.6-2.1.2-1.5-1.9-5.6-23.7h-.2l-8.4 17.5c-.9 2-1.7 4.3-2.1 6.9l.2.2v-.9s-.5 1.6-.8 1.3h-.6l-2-1H29l-.8.3-.6-.2-.4.4-.2.5h-.2l-.2-.5-1.8-2.5v-.8c0-2.4 3.2-9.8 9.5-22.3l4.8-10.3c.7-.6 3-1 6.8-1.2.9 0 2.9 2 2.9 2v.3c0 3.8 2.3 9.8 3.9 20.9 1.9-3.2 5.5-12.6 7.9-20.5.5-1.8 1.3-2.6 2.4-2.6-.1-.3.3-.4.9-.5zm29.1.8c0 .5.3.8.8.8v.4h-1v.2c.9 0 1.2.1 1 .4v.4h-.6s.4.4 1.6.4v.6h-1 2.3l1.8 1h-.1v.2c.7 0 1 .1 1 .4 0 .5-2.4 1-7 1.5-1.6 0-4.6.9-9.1 2.7l-2.1 4.2h-.2s2.7-.4 6-.5l.4.6-1 .2v.2c1.4 0 2 .1 2 .4l-1 .4v-.3h.4l-.4 1c0 .7.5 1.2 1 1.6V83.1c.7 0 1 .1 1 .4v.4c0 .4-3.8 1.3-11.5 3-1 0-2.2 1.8-3.7 5.5l13.2-2.2v.7h.2l.9-.2c.2.7.5 1 .9 1v.2s-.2.2-.6 0h-.4v1h1-.8l.8.4v.5l-.2.2c1.9 0 2.9.3 3.1 1l-.2.2c.7.1 1 .3 1 .6-1.1.7-5.1 1.7-11.8 2.9-7.8 1.3-11.8 2.5-11.8 3.5-.2.7-.8 1.2-1.7 1.7H67l-1.1-1h-.4l-1 .2c0-.3-.6-.7-1.9-1l-.6.1-.2-.2v-1.1h-.4l-.2 1H61l-.2-.2v-.2c1.1-3.9 5.8-14.9 14.4-33.1 0-1.3.9-2.1 2.7-2.3l7.5.2 7.6-.6z" opacity=".75" fill="#1d0031"/><path d="M59.7 20.5c1.8 0 3 .5 3.5 1.4.5 0 .8.4.8 1.2 0 1.5-2.6 7.2-7.8 17.4C54 45 50.3 50 45.1 55.7c-3.2 2.9-7.1 4.4-11.9 4.4-3.7 0-6.2-1.8-7.8-5.4-.3-.5-.4-1.2-.4-2.2v-.8s.8-8.4 2.6-11.7h.4c1.1.5 1.7 1.4 1.8 2.2.3 0 .4-1.2.4-1.2h.8v2c-.1 0 0-.3 0-1h.4l.2.4c.5 0 .9-.9 1.4-2.6l.8-.2c0 .8 1.2 1.2 1.2 1.2V40h.4l-1.2 11 .4 2h.4c2-.6 4.9-3.7 8.7-9.3 3.4-5.1 6.7-11.5 10-19.4 0-2 2-3.4 6-3.8zm35-.5h.4s1.5.6 2.5 1.6l.2.4h.3l-.2.8.2 2.7c-.2 2.3-1.1 3.5-2.5 3.5h-1.2S82.1 30.3 74 34h.1S90 36.7 91 38.7c1 .6 1.5 1.6 1.5 2.9-.4 4.6-.9 6.9-1.7 6.9-3.1 2.4-6.6 4.2-10.4 5.6-5.7 2-13.6 4.2-23.6 6.7l-.8-.2v-.2l2-.6v-.4l-2 .4v-.2c0-.3.3-.5 1-.6v-1h-1 1l-1.7-.4.7-.2v-.6c-1.1 0-1.3-.2-1.3-.6l-.2-.2H54l1-.2V55h-1.2c0 .3-.2.2-.8.2V55c.2-.7 5.8-2.7 17.1-5.9 7.5-2.6 11.8-4.3 13-5.2-11.8-.8-17.8-2-17.8-3.8-1.4-.9-2.1-2.2-2.1-4 0-1.6.8-3.5 2.5-5.6 10.2-7 29-10.5 29-10.5zM57 57zm6.1 6h1.5c1.8 0 3.3.8 4.4 2.4v.6l-8 19.8c-1.9 3.5-3.8 8.4-5.7 14.8l-.6.4h-.6l-.8-.4-.2 1.4h-.4l-1-.6-2.1.2-1.5-1.9L42.5 76h-.2l-8.4 17.5c-.9 2-1.7 4.3-2.1 6.9l.2.2v-.9s-.5 1.6-.8 1.3h-.6l-2-1h-.4l-.8.3-.6-.2-.4.4-.2.5H26l-.2-.5L24 98v-.8c0-2.4 3.2-9.8 9.5-22.3l4.8-10.3c.7-.6 3-1 6.8-1.2.9 0 2.9 2 2.9 2v.3c.9 4.2 2.2 9 3.9 20.9 2.6-7.2 5.5-12.6 7.9-20.5.5-1.8 1.3-2.6 2.4-2.6-.1-.3.3-.4.9-.5zm29.1.8c0 .5.3.8.8.8v.4h-1v.2c.9 0 1.2.1 1 .4v.4h-.6s.4.4 1.6.4v.6h-1 2.3l1.8 1H97v.2c.7 0 1 .1 1 .4 0 .5-2.4 1-7 1.5-1.6 0-4.6.9-9.1 2.7L79.8 77h-.2s2.7-.4 6-.5l.4.6-1 .2v.2c1.4 0 2 .1 2 .4l-1 .4V78h.4l-.4 1c0 .7.5 1.2 1 1.6V81.2c.7 0 1 .1 1 .4v.4c0 .4-3.8 1.3-11.5 3-1 0-2.2 1.8-3.7 5.5L86 88.3v.7h.2l.9-.2c.2.7.5 1 .9 1v.2s-.2.2-.6 0H87v1h1-.8l.8.4v.5l-.2.2c1.9 0 2.9.3 3.1 1l-.2.2c.7.1 1 .3 1 .6-1.1.7-5.1 1.7-11.8 2.9-7.8 1.3-11.8 2.5-11.8 3.5-.2.7-.8 1.2-1.7 1.7h-.2l-1.1-1h-.4l-1 .2c0-.3-.6-.7-1.9-1l-.6.1-.2-.2V99h-.4l-.2 1h-.2l-.2-.2v-.2c1.1-3.9 5.8-14.9 14.4-33.1 0-1.3.9-2.1 2.7-2.3l7.5.2 7.6-.6z" fill="#f9cc2f"/></svg>
