<svg xmlns="http://www.w3.org/2000/svg" viewBox="0 0 124 124">
  <path d="M67.8 123c-1.2 0-2.3-.1-3.3-.4-1.6-.4-2.9-.7-3.9-.9-.9-.2-1.7-.4-2.5-.6-.6-.2-1.2-.4-1.9-.6-1.1-.4-2.3-.9-4.2-1.3-1.1-.3-2.1-.5-2.9-.7-1.4-.3-2.4-.6-3.5-.9-.5-.2-1.1-.4-1.7-.7-1.1-.5-2.4-1-4.3-1.5-1.7-.4-3-.7-4.1-.9-.8-.1-1.6-.3-2.3-.5s-1.4-.4-2.3-.6c-1-.2-2.3-.5-3.9-.9-1.8-.5-3.7-1.3-5.5-2.2-1.6-.9-2.9-2.2-4.2-3.5l-.5-.5c-1.3-1.3-2.7-2.7-3.6-4.4-.9-1.6-1.6-3.4-2.2-5.5-.5-2-.8-3.3-1-4.4-.1-.7-.3-1.3-.4-1.9-.2-.7-.4-1.5-.6-2.3-.3-1-.6-2.2-1-3.9-.4-1.6-.7-2.8-.9-3.8-.2-1-.4-1.7-.6-2.5-.2-.6-.4-1.2-.6-1.9-.4-1.1-.8-2.4-1.3-4.4l-.5-2c-.5-1.9-.8-3.1-1.1-4.2-.2-.4-.3-.9-.5-1.4-.5-1.1-1-2.6-1.6-4.8-.5-1.9-.4-4.1-.3-6.2.1-1.8.3-4 .8-6 .6-2.1 1.6-3.9 2.7-5.5 1.2-1.8 2.4-3.4 3.8-4.8 1.8-1.8 2.8-3 3.7-4 .2-.3.5-.6.7-.8 1.1-1.3 2.3-2.5 4.6-4.8 1.7-1.7 3-2.7 4-3.4.4-.3.8-.6 1.1-.9 1.3-1.1 2.6-2.3 4.8-4.5 1.4-1.4 2.2-2.5 2.9-3.4.5-.6.8-1.1 1.3-1.6.6-.6 1.2-1.1 1.9-1.8.8-.7 1.8-1.5 3-2.7l.6-.5c1.2-1.2 2.5-2.5 4.2-3.5 1.9-1.1 4-1.8 5.7-2.2 2.1-.6 4.1-1 5.9-1.1.9-.1 1.9-.2 2.9-.2 1.3 0 2.4.1 3.3.3 2.5.6 4 1.1 5.3 1.6.3.1.7.2 1 .3.6.2 1.1.5 1.8.8 1.1.5 2.3 1 4.2 1.5 2 .5 3.3.6 4.5.6.6 0 1.2.1 1.8.2 1.7.3 3.3.6 6.4 1.4 1.6.4 2.8.7 3.8.9.9.2 1.7.4 2.5.6.7.2 1.3.5 2.1.8 1 .4 2.2.9 4 1.4l.4.1c1.7.4 3.6.9 5.3 2 1.6.9 2.8 2.2 4.1 3.5l.4.4c1.4 1.4 2.9 2.9 3.8 4.7.9 1.7 1.3 3.6 1.7 5.2l.1.4c.5 1.9.8 3.2 1.1 4.2.2.7.4 1.4.5 2 .2.6.3 1.2.6 1.9.3 1.1.8 2.4 1.3 4.3.7 2.9 1.2 4.6 1.7 6.2.2.8.3 1.5.5 2.4.2 1.1.4 2.3.8 4 .5 2 1 3.3 1.5 4.4.2.5.5 1.1.6 1.6.5 1.5.9 3.1 1.7 6.1v.2c.5 2.1.7 4.2.6 6.2-.1 2.1-.7 4.3-1.2 6s-1.2 3.9-2.4 5.7c-1.2 1.9-2.7 3.4-4 4.7l-2.1 2.1-2.5 2.5c-.7.8-1.4 1.5-2.4 2.4l-2.3 2.3c-2.3 2.3-3.4 3.5-4.6 4.7-.4.4-.8.9-1.2 1.5-.7 1-1.6 2.2-3.1 3.6-2 2.1-3.3 3.1-4.4 4.1l-1.2 1c-1.1.9-2.3 1.9-4.1 3.8-1.2 1.2-2.7 2-4.1 2.8-.3.2-.6.4-.9.5-.3.2-.6.4-.9.5-1.4.8-2.8 1.7-4.5 2.2-2 .5-4 .8-5.9 1-1.2.3-2.1.4-3 .4z" fill="#682ec6"/>
  <path d="M61.7 22.5c1.8 0 3 .5 3.5 1.4.5 0 .8.4.8 1.2 0 1.5-2.6 7.2-7.8 17.4C56 47 52.3 52 47.1 57.7c-3.2 2.9-7.1 4.4-11.9 4.4-3.7 0-6.2-1.8-7.8-5.4-.3-.5-.4-1.2-.4-2.2v-.8s.8-8.4 2.6-11.7h.4c1.1.5 1.7 1.4 1.8 2.2.3 0 .4-1.2.4-1.2h.8v2c-.1 0 0-.3 0-1h.4l.2.4c.5 0 .9-.9 1.4-2.6l.8-.2c0 .8 1.2 1.2 1.2 1.2V42h.4l-1.2 11 .4 2h.4c2-.6 4.9-3.7 8.7-9.3 3.4-5.1 6.7-11.5 10-19.4 0-2 2-3.4 6-3.8zm35-.5h.4s1.5.6 2.5 1.6l.2.4h.1l-.2.8.2 2.7c-.2 2.3-1.1 3.5-2.5 3.5h-1S84.1 32.3 76 36h.1S92 38.7 93 40.7c1 .6 1.5 1.6 1.5 2.9-.4 4.6-.9 6.9-1.7 6.9-3.1 2.4-6.6 4.2-10.4 5.6-5.7 2-13.6 4.2-23.6 6.7l-.8-.2v-.2l2-.6v-.4l-2 .4v-.2c0-.3.3-.5 1-.6v-1h-1 1l-1.7-.4.7-.2v-.6c-1.1 0-1.3-.2-1.3-.6l-.2-.2H56l1-.2V57h-1.2c0 .3-.2.2-.8.2V57c.2-.7 5.8-2.7 17.1-5.9 7.5-2.6 11.8-4.3 13-5.2-11.8-.8-17.8-2-17.8-3.8-1.4-.9-2.1-2.2-2.1-4 0-1.6.8-3.5 2.5-5.6 10.2-7 29-10.5 29-10.5zM65.1 65h1.5c1.8 0 3.3.8 4.4 2.4v.6l-8 19.8c-1.9 3.5-3.8 8.4-5.7 14.8l-.6.4h-.6l-.8-.4-.2 1.4h-.4l-1-.6-2.1.2-1.5-1.9L44.5 78h-.2l-8.4 17.5c-.9 2-1.7 4.3-2.1 6.9l.2.2v-.9s-.5 1.6-.8 1.3h-.6l-2-1h-.4l-.8.3-.6-.2-.4.4-.2.5H28l-.2-.5L26 100v-.8c0-2.4 3.2-9.8 9.5-22.3l4.8-10.3c.7-.6 3-1 6.8-1.2.9 0 2.9 2 2.9 2v.3c0 3.8 2.3 9.8 3.9 20.9 1.9-3.2 5.5-12.6 7.9-20.5.5-1.8 1.3-2.6 2.4-2.6-.1-.3.3-.4.9-.5zm29.1.8c0 .5.3.8.8.8v.4h-1v.2c.9 0 1.2.1 1 .4v.4h-.6s.4.4 1.6.4v.6h-1 2.3l1.8 1H99v.2c.7 0 1 .1 1 .4 0 .5-2.4 1-7 1.5-1.6 0-4.6.9-9.1 2.7L81.8 79h-.2s2.7-.4 6-.5l.4.6-1 .2v.2c1.4 0 2 .1 2 .4l-1 .4V80h.4l-.4 1c0 .7.5 1.2 1 1.6v.6c.7 0 1 .1 1 .4v.4c0 .4-3.8 1.3-11.5 3-1 0-2.2 1.8-3.7 5.5L88 90.3v.7h.2l.9-.2c.2.7.5 1 .9 1v.2s-.2.2-.6 0H89v1h1-.8l.8.4v.5l-.2.2c1.9 0 2.9.3 3.1 1l-.2.2c.7.1 1 .3 1 .6-1.1.7-5.1 1.7-11.8 2.9-7.8 1.3-11.8 2.5-11.8 3.5-.2.7-.8 1.2-1.7 1.7h-.2l-1.1-1h-.4l-1 .2c0-.3-.6-.7-1.9-1l-.6.1-.2-.2V101h-.4l-.2 1h-.2l-.2-.2v-.2c1.1-3.9 5.8-14.9 14.4-33.1 0-1.3.9-2.1 2.7-2.3l7.5.2 7.6-.6z" opacity=".75" fill="#1d0031"/>
  <path d="M59.7 20.5c1.8 0 3 .5 3.5 1.4.5 0 .8.4.8 1.2 0 1.5-2.6 7.2-7.8 17.4C54 45 50.3 50 45.1 55.7c-3.2 2.9-7.1 4.4-11.9 4.4-3.7 0-6.2-1.8-7.8-5.4-.3-.5-.4-1.2-.4-2.2v-.8s.8-8.4 2.6-11.7h.4c1.1.5 1.7 1.4 1.8 2.2.3 0 .4-1.2.4-1.2h.8v2c-.1 0 0-.3 0-1h.4l.2.4c.5 0 .9-.9 1.4-2.6l.8-.2c0 .8 1.2 1.2 1.2 1.2V40h.4l-1.2 11 .4 2h.4c2-.6 4.9-3.7 8.7-9.3 3.4-5.1 6.7-11.5 10-19.4 0-2 2-3.4 6-3.8zm35-.5h.4s1.5.6 2.5 1.6l.2.4h.3l-.2.8.2 2.7c-.2 2.3-1.1 3.5-2.5 3.5h-1.2S82.1 30.3 74 34h.1S90 36.7 91 38.7c1 .6 1.5 1.6 1.5 2.9-.4 4.6-.9 6.9-1.7 6.9-3.1 2.4-6.6 4.2-10.4 5.6-5.7 2-13.6 4.2-23.6 6.7l-.8-.2v-.2l2-.6v-.4l-2 .4v-.2c0-.3.3-.5 1-.6v-1h-1 1l-1.7-.4.7-.2v-.6c-1.1 0-1.3-.2-1.3-.6l-.2-.2H54l1-.2V55h-1.2c0 .3-.2.2-.8.2V55c.2-.7 5.8-2.7 17.1-5.9 7.5-2.6 11.8-4.3 13-5.2-11.8-.8-17.8-2-17.8-3.8-1.4-.9-2.1-2.2-2.1-4 0-1.6.8-3.5 2.5-5.6 10.2-7 29-10.5 29-10.5zM63.1 63h1.5c1.8 0 3.3.8 4.4 2.4v.6l-8 19.8c-1.9 3.5-3.8 8.4-5.7 14.8l-.6.4h-.6l-.8-.4-.2 1.4h-.4l-1-.6-2.1.2-1.5-1.9L42.5 76h-.2l-8.4 17.5c-.9 2-1.7 4.3-2.1 6.9l.2.2v-.9s-.5 1.6-.8 1.3h-.6l-2-1h-.4l-.8.3-.6-.2-.4.4-.2.5H26l-.2-.5L24 98v-.8c0-2.4 3.2-9.8 9.5-22.3l4.8-10.3c.7-.6 3-1 6.8-1.2.9 0 2.9 2 2.9 2v.3c.9 4.2 2.2 9 3.9 20.9 2.6-7.2 5.5-12.6 7.9-20.5.5-1.8 1.3-2.6 2.4-2.6-.1-.3.3-.4.9-.5zm29.1.8c0 .5.3.8.8.8v.4h-1v.2c.9 0 1.2.1 1 .4v.4h-.6s.4.4 1.6.4v.6h-1 2.3l1.8 1H97v.2c.7 0 1 .1 1 .4 0 .5-2.4 1-7 1.5-1.6 0-4.6.9-9.1 2.7L79.8 77h-.2s2.7-.4 6-.5l.4.6-1 .2v.2c1.4 0 2 .1 2 .4l-1 .4V78h.4l-.4 1c0 .7.5 1.2 1 1.6v.6c.7 0 1 .1 1 .4v.4c0 .4-3.8 1.3-11.5 3-1 0-2.2 1.8-3.7 5.5L86 88.3v.7h.2l.9-.2c.2.7.5 1 .9 1v.2s-.2.2-.6 0H87v1h1-.8l.8.4v.5l-.2.2c1.9 0 2.9.3 3.1 1l-.2.2c.7.1 1 .3 1 .6-1.1.7-5.1 1.7-11.8 2.9-7.8 1.3-11.8 2.5-11.8 3.5-.2.7-.8 1.2-1.7 1.7h-.2l-1.1-1h-.4l-1 .2c0-.3-.6-.7-1.9-1l-.6.1-.2-.2V99h-.4l-.2 1h-.2l-.2-.2v-.2c1.1-3.9 5.8-14.9 14.4-33.1 0-1.3.9-2.1 2.7-2.3l7.5.2 7.6-.6z" fill="#f9d72f"/>
</svg>
