<svg xmlns="http://www.w3.org/2000/svg" viewBox="0 0 1362 552"><path d="M4.6 546.4c-2 .2-4.5-.2-4.6 1.7 1.7 1.5 5.2 1.3 4.6-1.7zm0-43.4c-.2 2.7 2 3.4 3.3 5 4-.7 1-7.6-3.3-5zm11.9 19c-4.1 1.1-6.1-2.5-9.3-.6.2 6.4 10.4 10.9 9.3.6zM14.7 50.9c-1.7-.5-5.2-1.1-6.7 0v1.7c2 .5 2.8 1.7 5.9 1.1-.2-1.3 1.3-1.3.8-2.8zm7.8 446.6c-14.5-.6 1.8 9.8 0 0zm3.3-412.8c-1.1.6-2.4 4.1 0 4.4 2.2-1.1 3.7-3.6 0-4.4zm9.3 413.9c.6-1.6 3.5-1.1 3.3-3.3-.6-.2-.7-.5-.7-1.1-3.9-.4-6.1 3.2-2.6 4.4zm8.5 38.9c-.6-.2-1.3 0-1.3-.6-4.5.6-5.2 6.3 1.3 5.5-.5-2.1 1-4 0-4.9zm8.6-467.7c3.9.7.3-2.3 0 0zm4.1 55.5h-2.6c-1.3 2.4-.9 7.4 3.3 6.7-.4-2.3.4-5.3-.7-6.7zm.5-75.5c-.2-1.1.7-1.3.7-2.2-1.5-1.3-4.1-.2-3.9 1.7 1.5-.3 1.4.9 3.2.5zM58.1 77c-1.3.3-4.6-.9-3.9 1.1 1.7 0 3.9.3 3.9-1.1zm9.3 214.2h-2c-.2 1.3.6 1.7 2 1.7v-1.7zm-2-232.5c.2 1.7 3.9 2.5 5.2 1.7 0-1.8-3.9-2.5-5.2-1.7zm2.7 165.9c-1.1 2-.2 4.4 2.6 5.5 2.6-1.1 1.3-6.4-2.6-5.5zm0-60c2.1 1.4-1.6-1.7 0 0zm3.9 10c-1.7 1.7.2 3.9 3.3 3.3-.1-1.8-.5-3.6-3.3-3.3zm3.9 9.4c-.6-.5-3.2-1.4-2.6.6 1-.1 2.5.2 2.6-.6zM80 300c-1.5.5-5.2-.9-4.6 1.1 1.5.4 4.8 1.4 4.6-1.1zm3.2 11.1c-.7-2 2.2-1.1 2.6-2.2-1.9-.6-4.6-2-5.9 0 1.6.3 1.8 1.9 3.3 2.2zm2.6-92.1h2c.4-1.6-1.3-1.1-2-1.7v1.7zm.7-2.2c-.2.3.4-.3 0 0zm1.3 0c2.2-.8-2.6-1.4 0 0zm.8 7.8c3.5 0 5-1.7 5.9-3.9-3.3-2-8.5.9-5.9 3.9zm19.6-164.2h-3.9v1.7c1.5 1.2 4.1.2 3.9-1.7zm6.7 437.8c0-2.2-2.6-2.4-4.6-2.8-2.1 2.1 2 4.2 4.6 2.8zm-.7-346.9c-.2.8-.9 1.1-.7 2.2 2 .9 2-2.4.7-2.2zm4.1-12.7c3.9-.2 7.8-4.7 8.5-9.4-4.1-2.2-5.2 2.5-8.5 2.8.4 3.8-.4 6.7-1.3 9.4h2c0-.6.6-.6.7-1.1-1.4 0-1.8-.6-1.4-1.7zm3.1-24.9c-.2 1.3.2 2.2.7 2.8 1.7 0 2.6-.8 2.6-2.2-.7-.6-1.6-.8-3.3-.6zm4.7 92h2.6c3.3-5.2-7.5-5.7-2.6 0zm0-90.9c-.2.2.5-.5 0 0zm8.5 28.8c-3.5-8.8-10 1.3 0 0zm5.9 165.3c-.2-1.4 1.1-1.3.7-2.8-1.1 0-3.9-1.6-4.6 0 1.7.6 2.3 2.2 3.9 2.8zm-3.1 177h1.3v-1.1h-1.3v1.1zm3.1-322.4c.7 1.7 0 1.3 0 3.3 3 .5 2.1-3.3 0-3.3zm0-5.5c.9.3-.4 1.4.7 2.8h2c.3-1.5-1.4-4.3-2.7-2.8zm1.5 19.9c-.3.3.4-.3 0 0zm0-14.9c-2.8-.3 3.9.5 0 0zm5.8-23.9c-1.7.5-4.6-.2-4.6 1.7 5.6.9 11.5.5 11.9-4.4-2-.5-2.6-2.2-5.9-1.7.4 2.2-.5 3.3-1.4 4.4zm-3.9-48.7c-.9 4.5 1.3 10.5 8 8.3-2.1-3.3-3.7-6.9-8-8.3zm6.7 180.8c-3-.2-2.6-.5-5.2 0 .4 5.2 4.6 13.2 5.9 17.7 5-4.4.2-11.3-.7-17.7zm-.8-92.2c-1.7-.2-3.2-.2-3.3 1.1 1.7.5 3.5 1.3 3.3-1.1zm2.6 219.2c-1.3-1.3-2.4-2.7-4.6-1.7-.8 2.7 4.3 3.6 4.6 1.7zm12.7 51.1c.4-3.6-1.1-5.3-.7-8.9-5.4-1.1-8.5-6.1-15.2-4.4.7 7.1 9.5 7.2 10.6 13.9 1.9-.1 4.3.2 5.3-.6zm-3.4-33.9c2-5.3-.2-12.1-5.9-12.7.7 3.2 2.2 10.4 5.9 12.7zM158.4 158c-1.5-.2-2.4.2-2.6 1.1 1.1-.1 3.3.7 2.6-1.1zm-1.3 174.3c-1.5 3.4 2 8.8 6.7 7.2-1-3.3-1.5-9.1-6.7-7.2zm11.3 30.5c-2-.3-9.3-1.9-9.3 1.1 3.4-.2 8.2 1.9 9.3-1.1zm-5.4 138c-2.4-3.1-3.1 3.3 0 0zm2.6-31.6c-.4-1.6-1.3-2.5-3.3-2.8-.7 1.6-1.5 2.4-.7 3.9 2.5 1.1 2.3-.3 4-1.1zm4.1 24.4c-2.8-.6-6.5-.8-6.7 2.2 2.1 3 8.9 1.4 6.7-2.2zm-5.9-38.8c0 .8-.9.8-.7 1.7 1.7 1.3 4.5 1.6 4.6-1.1-2.1.3-1.9-.9-3.9-.6zm6.5-46.1c-2 1.9 2.2 5 .7 6.6 2.2.8 6.3.8 8.5 0-.4-3.1-1.1-2.8-1.3-5.5-3.3.3-4.2-1.6-7.9-1.1zm4-348.3h-2.6v2.2c1.5-.1 2.5-.8 2.6-2.2zm-1.3 6.1c-.4 1.9-.7 1.9 0 3.3 1.3.2 1.5-.6 2.6-.6.4-2-.7-2.7-2.6-2.7zm4.5 307.9c2.2 0 4.6.2 5.2-1.1-.7-1.3-6.1-2.2-5.2 1.1zm10-6.7c-3.3-1.4-8.4.3-9.3 2.8 3.2.9 7.6-.6 9.3-2.8zm0 44.5c-1.7-.5-3-.8-3.9.6 1.1-.5 3.7.5 3.9-.6zm4.7-198.1v-2.8c-3 .3-5.6.2-7.2 2.8 1.8.7 5.1.7 7.2 0zm-6-200.4c.2 1.3.4 2.7 2.6 2.2.2-1.7-.5-2.3-2.6-2.2zm2.6 450.5c-1.5-.2-2 .5-2 1.7 1.6.3 2.4-.2 2-1.7zm13.8-444.3c-3.7.8-5.8.2-9.8 0-1.3 1.1-.6 3.6 0 5 5.7-.2 5.1-3.3 9.8-5zm-6 343.4c.7.5 1.9.8 3.3.6 0-1.9.2-3.9-2-3.9-1.8.8-.5 1.2-1.3 3.3zm9.3 3.3c1.9.2 3.3-.2 3.9-1.1-1.3.3-4.5-.8-3.9 1.1zm5.9-40v-1.1c-.7 0-.7-.5-1.3-.6 0 .8-.4 1.3-.7 1.7h2zm30.5-277.9c.4.2 2.6 1.4 2.6 0-1.3.6-2.2-1.6-2.6 0zm2.6 210.2v2.8c3.1 2.2 3.3-3.1 0-2.8zm1.3-206.8c-.9.8-.9 3.1 0 3.9h2.6c1.1-2 .2-3.9-2.6-3.9zm11.1 372.7c-5 0-8 1.9-8.5 5.5 3.1.7 9.3-2.8 8.5-5.5zm4.1 30.6c0-4.2-6.5-3.4-9.3-1.7 2.1 1.4 6 2.9 9.3 1.7zm-5.9-154.3c.2-1.4-.9-1.9-2.6-1.7-.4 1.5 1.3 1.5 2.6 1.7zm1.8 9.5v1.1h1.3v-1.1h-1.3zm4.1 152c-.4 2-.6 2-2 3.9 4.8.2 3.9 5.3 9.3 5 .5-3.9.3-9.5-7.3-8.9zm1.9-145.4v-1.1H262v1.1h1.3zm1.3 10.5c1.5.6.2 3.4 3.3 2.8.4-1.7-1.7-4.4-3.3-2.8zM270 148c-1.5-.2-2.4-.9-4.6-.6.3 2.5 4.4 4.1 4.6.6zm1.3 288.6c3 1.4 6.7-.5 7.2-2.8-3-1.6-7.2 0-7.2 2.8zm4.6-19c-.6-.9-2-1.3-3.9-1.1-.7.6-.7 1.9-.7 3.3 2.6.2 4-.6 4.6-2.2zm2.6-120.3c1.9-1.9.6-3 1.3-5.5-1.3-.9-4.3-.5-6.7-.6.2 2.5-1.1 6.9 5.4 6.1zm0-278.5c.2-1.4-.2-2.4-2-2.2-1.5 1.2.1 2.2 2 2.2zm20.4 442.1c8.7-1.1 5.8-20.2-1.3-18.8-4.4.8.6 17.7 1.3 18.8zm6.7 15.5c-1.7-.2-3.2-.2-3.3 1.1 1.6.1 3.1.1 3.3-1.1zm50.7 57.2c-1.1-.9-2.8-1.4-5.2-1.1-.6 2.8 1.3 3.6 4.6 3.3-.2-1 .2-1.8.6-2.2zm-2.6-439.3c0 2 4.1 4.5 5.2 2.2-2.6.1-2.6-2.2-5.2-2.2zm3.9 426.6c1.5.2 2.8 1.3 3.3-.6-.7-.8-3.1-.8-3.3.6zm1.3 17.7c4.1.5.5-2.5 0 0zm2.8 10c.9.9 3.7.8 3.3-1.1-1.3.2-4.1-.8-3.3 1.1zm34.9-449.9c2.4.2 4.5.2 4.6-1.7-.7-.5-5-.5-4.6 1.7zM413.7 553c-3.5-.9-5.4-3-9.8-1.7m6.6-459.8h-3.3c-.4 1.3-1.3 2.8 0 3.9h2.6c0-1.8 2-2.9.7-3.9zm22.3 425.9c-.2 5.6-5 13.3-.7 16.1 6.1-2.5 5.4-9.2 8-13.9-2.9-.3-2.5-3.3-7.3-2.2zm47-1.5c-2.8-.2-5.2 0-5.9 1.7 1.5 1.4 3 2.7 5.9 2.8.9-.9.9-3.7 0-4.5zm2.6 8.3c-1.7 0-3.2-.2-3.9.6 2 3-2.8 3.4-.7 6.6 1.1.8 3.2.8 3.9 1.7-2.6-.6-2 1.3-2 2.8 3.2.2 6.7 1.7 9.8-.6-.2-3-.7-3.8 0-6.7-2.5-1.3-7-1.1-7.1-4.4zM492.9 62c3.3 0 2.8-3.1 1.3-4.4-2-.3-2.8.6-3.3 1.7.7.8 1.9 1.3 2 2.7zm16.6 459.4c-1.3-1.3-3.5-1.3-5.2-.6 0 1.4-.2 2.7.7 3.3 2-.2 4.8-.1 4.5-2.7zm1.3-465.5h3.9c.2-2 1.7-3.1 2-5-3.7.3-4.1 3.4-5.9 5zm7.2-5.5v-1.1h-1.3v1.1h1.3zm9.8-13.9c.6-2.2-2 0 0 0zm2.6 56c.6-.3-.1.4 0 0zm14-27.7c2.2-2.4-1.1-4.2-2.6-3.9.7 1.4.5 3.6 2.6 3.9zm0 483.2c2 1.7 6.1 4.2 9.8 2.8.4-5.2-7.1-6.1-9.8-2.8zm8.5-509.8c2.2-.2 1.5 2.2 3.3 2.2 1-2.2-2.2-3.6-3.3-2.2zm16.5 27.2c-.4 1.7.6 2.5 2.6 2.2.4-1.7-.5-2.5-2.6-2.2zm15.3 485.9c.9-.3 3.3.6 3.3-.6-1.9.7-3.5-1.8-3.3.6zM645.4 3.2c.9 2 5.4 2 6.7 0-.4-2.5-6.9-3.4-6.7 0zm15.7 23.4c1.9.8 3.3 1.4 4.6 0 .2-1.4-1.1-1.3-.7-2.8h-3.3c-.7 1.7.2 1.4-.6 2.8zm40.3 517.5c1.9 2 4.8.5 5.9-1.1-2.2-2.2-4.7-1.4-5.9 1.1zm4.5-7.2c1.7 1.1 3.3 2 6.7 1.7.6-3.3-1.9-3.9-5.2-3.9-.2 1.1-1.9.8-1.5 2.2zm17.8-15.5c-.2 3 1.7 4.2 5.2 3.9.4-3-1.5-4.3-5.2-3.9zm54.2-510.3c1.3-1.4 1.5-3.1-.7-3.9-.9.6-1.3 3.7.7 3.9zm1.9 27.1v1.1h1.3v-1.1h-1.3zm10 483.8c6.7-.5-1.3-4.1 3.3-5.5-4.4-3-6.6 2.5-3.3 5.5zm6-509.8c-.6 1.1 1.7 2.5 2 1.1-1.1-.2-.6-1.4-2-1.1zm9.1 24.3c-.4 1.4-1.1 2.2 1.3 2.2.1-1.3 0-2.1-1.3-2.2zm5.9 466.5c-.6 2.4-2 3.8-2.6 6.1 6.3 3.3 10.4-6.2 2.6-6.1zm2.8-496.5c.6-1.3 1.3-3.8 0-5-6.2-.4-5 5 0 5zM810.8 457c2.2 1.4-1.5-1.8 0 0zm.7-396.6c3 .5 2-3.9-.7-3.3 0 1.3 1.1 1.6.7 3.3zm7.3 22.1c-1.3 1.1-.4 2.7 2 2.2.2-1.4-.4-2.3-2-2.2zm2-79.3c-1.5-.2-2.4.2-2.6 1.1 1.3-.2 1.5.6 2.6.6V3.2zm.6 92.2c2.6-1.4-2.3-.8 0 0zm2.6 409.3c-.7.9-.7 4.9 1.3 6.1.3-.7.9-5.6-1.3-6.1zm1.5 7.3c.4 3.1.2 7.2 2.6 6.1-1-.5.3-5.8-2.6-6.1zm26.3-462.2c-5.9 1.4 4.1 23 6.7 9.4-4.4-1.3-3.9-6.8-6.7-9.4zm0 438.8c.4 1.7-1.1 2-.7 3.9 1.3-.2 1.5.6 2.6.6.9-1 0-4-1.9-4.5zm12.5-404.4c.9-7.1 1.7-16.9-1.3-23.8 0 5.7-1.5 20.2 1.3 23.8zm-1.9 4c1.9.2 3.5 0 3.3-1.7-2.2-.4-2.7.7-3.3 1.7zm1.9-52.8c.7-2.2-1.9 0 0 0zm49.5 468.7h3.3c-.6-3.4-.4-4.5-.7-8.3-4.6.3-5.8 6.6-5.9 8.9 1.3-.8 1.7-2.2 3.9-2.2 0 .7-.8.8-.6 1.6zm-3.3-109.2c-.2 1.3.6 1.7 2 1.7v-1.7h-2zm9.8 122.5c-.7-3-2.2-5.5-3.3-8.3-3-.6-3.3.9-5.2 1.1.4 4.3 3.3 9 8.5 7.2zm4.1-14.8c-2.4.2-6.3 1.7-4.6 3.3.5-1.8 5-.5 4.6-3.3zm1.3-79.3c-.4 1.6 1.3 1.1 2 1.7.1-1.4-.7-1.9-2-1.7zm36.2-93.2c1.9-2.4.9-5.6 2-9.4-.6-.2-1.3 0-1.3-.6-4.2.7-4 8.4-.7 10zm224.8 92c-2.8.3-3.2 2.5-4.6 3.9 1.9.2 4.6 2.4 6.7.6-.6-.7.2-4-2.1-4.5zm-221.4 26.6c-.9 0-1.5 4.1.7 3.3.7-1 2-3.7-.7-3.3zm7.8-407.2c2.2 0 4.6.2 5.2-1.1-1.2-1-5.1-.6-5.2 1.1zM992.4 527c2 1.2-1.7-1.9 0 0zm0-151.5c-.9.8-.9 2 0 2.8 3.3-1.2.7-1.4 0-2.8zm221.3 2.3c-1.5 3.1-.4 5.2-1.3 8.9.7.5 1.9.8 3.3.6-.6-3.7 2.6-7.1-2-9.5zm-1.3-10c-.6 2 3.2 2.2 3.3.6-1.7.2-1.5-1.1-3.3-.6zm-209.6 136.3c1.5 0 1.9.9 3.9.6 1.9-2.4.2-7.5 3.3-8.9-.7-.6-4.6-1.1-5.2 0 3.7 2.7-3.5 4.2-2 8.3zm4.1 45.6h-2.6v1.7c1.6 0 2.7-.3 2.6-1.7zm221.2-143.1c-6.5 1.4-2.6 12.1 2 16.1-1.7-3.1 1.1-.3 1.3-.6 3.6-4 1.2-16.4-3.3-15.5zm-135.6-138.7c-15.1-3.5-3 10.8 0 0zm-81-211.4c2.2 0 0 1.4 2.6 1.7-.2-1.1.7-1.3.7-2.2-.9-.7-3.3-.9-3.3.5zm81.7 207.4c-1.3-1.1-4.8-.8-4.6 1.1 2 .2 3.9 0 4.6-1.1zm-72.6-213.5c-2.2-.5-3.2.2-5.2-1.1 0 .8-.4 1.3-.7 1.7 1.8 1.1 5.5 2.9 5.9-.6zm214.2 382.2c.9.8 2.4.8 2.6-.6-.9.2-2.4-.1-2.6.6zM1021.3 32.7c-1.7 0-2.2.9-3.3 1.7 3 2.4 5.8 6 3.3 8.3-1.5 0-1.9.9-3.9.6-.9 3.3 2.8 5.2 5.2 3.9 1.7-1.3-.9-1.1-.7-2.8 5.9-1.7 7.2-8.9 10.6-11.1-3.7-1.1-10.8 6.3-11.2-.6zm-.7 308.3c1.7 3 1.7-1.9 0 0zm75.8-3.7c-.8 3.4 2 1.1 0 0zm150.9 96c-1.3 0-.4-1.9-2-1.7-1.9 1 1.4 3.1 2 1.7zm0-10.5c-.2.1.5-.5 0 0zm1.4-58.9c1.7 1.1 4.1 1.7 7.2 1.7-.3-2.1-5.5-2.8-7.2-1.7zm3.2 70.9c1.3.9.2 3.9 1.3 5 1.5.2 2.6-.2 3.3-.6.2-2.2-2.2-2.2-1.3-5-.9.5-3.3-.5-3.3.6zm5.9-14.4c-.7-.6-4.1-.3-4.6 1.1 1.7 0 3.2-.2 3.9.6.2-.7.4-1.2.7-1.7zm.8 25.6c1.9.2 2.8.9 4.6 1.1.4-2.4 0-4.1-2.6-3.9-.9.9-2 1.3-2 2.8zm2.6-19.9c1.7 0 3.9.3 3.9-1.1-.9-1-4.5-1.1-3.9 1.1zm.7 23.8c.7-.2 1.9.2 2-.6-.7-.4-2.5-1.3-2 .6zm3.9-42.2c2.6-1.4-2.2-.8 0 0zM1053.6 88.2c.6-2.4-2-.2 0 0zm80.5 145.2c-2 .2-5.2-.6-5.2 1.1 1.8-.2 5 .6 5.2-1.1zM1279 412.7c-3-1.7-3.2-6.3-2-8.9-1.3.2-1.5-.6-2.6-.6.6 6.3 0 14.7 3.3 19.9 3.2-2.8-2.8-7.5 1.3-10.4zm-205.5-35c0-.9.2-1.7.7-2.2-5.6-.3-7.2-9.2-13.2-5.5 5.3 1.6 6.9 6.3 12.5 7.7zm211.4 16.7c-.2 1.3.2 2.2.7 2.8 4 .7 3.2-4-.7-2.8zM1070.2 482c0 .8-.9.8-.7 1.7 2 0 5.2 1.7 6.7.6-2.1-.7-2.9-2.6-6-2.3zm227.4-118.6c1.3 5.8-1.3 15.7 8.5 16.1-.7-5.1-3.9-12.8-8.5-16.1zm-210.9 8.2c1.5 0 1.9.9 3.9.6.9-1.9-3.9-1.4-3.9-.6zm78.9-94.3c-3.5-1.1-3.5 4.2-1.3 4.4.2-.6 1.1-.6 2-.6-.3-2-.3-1.3-.7-3.8zm6.7-30.6c-.2 5.6 3.9 5 8.5 5.5-1.4-2.8-2.9-7.5-8.5-5.5zm1.3-49.3c2.2-.9 2.2-5.6 0-7.2-.9 2.1-2.2 5.6 0 7.2zM1103 497.5h3.3c.4-2.7 2-4.2 2.6-6.7-5.2-.5-1.9-4.7-6.7-5.5-1.6 4.7 2.7 6.6.8 12.2zm75.3-237.5c1.1-.2 3.3 1.6 3.9 0-1.2.2-3.2-1.5-3.9 0zm14.4-84.7c-.4-4.7-1.3-7.5-.7-10.5-11.9-2.2-4.7 10.6.7 10.5zm-78.3 309.5c.7.2 1.5.9 2 0-.9-.1-1.7-1-2 0zm219.9-62c.7.8 2.4.2 3.3-.6-.9-1-2.5-.5-3.3.6zm-209.4 97.5v-1.1h-2.6v1.1h2.6zm-2.8-7.3h2c.2-1.3-.6-1.7-2-1.7v1.7zm230.8-102c-2.6.2-1.7 3.1-3.3 3.9 1.9 0 1.5 2 3.9 1.7 1.6-2.3-1.3-2.5-.6-5.6zm2.6-39.9c-.4-.2-2.6-1.4-2.6 0 .4.1 2.6 1.4 2.6 0zm-1.3-6.6c2.4-.2 3.2 1.1 5.2 1.1-.7-1.9-.9-1.9-1.3-3.3-2.6-.5-2.4 1.6-3.9 2.2zm-212.9 113.6c1.5.5.2 3.1.7 4.4 2.4-.6 4.6-1.3 5.9-2.8-.5-1.6-4.2-3.3-6.6-1.6zm220.5-40.3h.2-.2zm-.9-.2c.6 0 .7.2.9.2-.7-.2-2.6-.3-.9-.2zM1150 496.4c1.3 0 .4 1.9 2 1.7.2-.8 1.1-.9 1.3-1.7-.5-.3-3.1-1.2-3.3 0zm.6-153.7c.7.6 2.4.6 3.9.6 0-1.7-1.5-2.5-3.9-2.2v1.6zm74.4-62.1c2.3 1.7 2.1-2.1 0 0zm-73.1 218.7c.7.2 1.5.9 2 0-.7-.2-1.5-1.1-2 0zm6.6 6.1c-.7-2-2-3.4-3.9-4.4-2.7 1.2.4 6.6 3.9 4.4zm-3.9-156.5c1.1 0 1.7-.5 2-1.1-1 0-2.3-.2-2 1.1zm80.5-79.3c-1.3 0-.7-1.6-2.6-1.1-.6 1.1 2.2 2.2 2.6 1.1zm-1143.9 46c-2.6.3-1.7-2.4-3.9-2.2 0 .8-1.1.5-1.3 1.1.9.7 4.2 2.1 5.2 1.1zm436.1 220.8c2 0 4.3.3 3.9-1.7-3-2-5.9-6.9-9.8-6.1.9 3.4 5.5 3.7 5.9 7.8zm-4.1-494.9c-.9 0-1.5-.3-2-.6.4.9-.7 3.3.7 3.3 2.2-3 2-4.5 5.2-6.6-.6-.2-.7-.5-.7-1.1-2.6.4-4.1 3.1-3.2 5zM542.3 69c.6.2.8.4 0 0zm-.5-.3l-.6-.3c.2 0 .7.3 1.1.6-.2-.1-.3-.1-.5-.3zm396.4 480.4c-1.7.8-2-.3-2.6.6M1231.5 425c-4.3-.8-1.3 2.5 0 0zm-131-151.7c.2-.9.9.2 2 0 .6-9.6 1.9-19.1-3.9-25.5.2 11.3 1.5 19.4 1.9 25.5zm148.2 147.1c-1.9-.8-2.2 2.2-1.3.6.8 0 2.5-.1 1.3-.6zm18.4-44.3c-1.5-.6-1.9-2-3.3-2.8.2 1.4 1.5 4.7 3.3 2.8zm-141-166.5c1.3.5 3.7-.9 2-1.1 0 .9-1.8.3-2 1.1zm1.3-6.6c1.8-1.7-1.9 1.4 0 0zm170.2 214.1c-3.9-1.1 5 1.6 0 0zm29.5 12.2c2.8 2.2 6.9-1.4 5.2-2.8-1.7.8-4.8.7-5.2 2.8z" fill="#f2cc2f"/></svg>