<?xml version="1.0" standalone="no"?>
<!DOCTYPE svg PUBLIC "-//W3C//DTD SVG 20010904//EN"
 "http://www.w3.org/TR/2001/REC-SVG-20010904/DTD/svg10.dtd">
<svg version="1.0" xmlns="http://www.w3.org/2000/svg"
 width="700.000000pt" height="700.000000pt" viewBox="0 0 700.000000 700.000000"
 preserveAspectRatio="xMidYMid meet">
<metadata>
Created by potrace 1.11, written by Peter Selinger 2001-2013
</metadata>
<g transform="translate(0.000000,700.000000) scale(0.100000,-0.100000)"
fill="#000000" stroke="none">
<path d="M2995 6880 c-208 -19 -512 -106 -647 -185 -40 -23 -103 -71 -140
-105 -37 -34 -72 -59 -78 -55 -5 3 -7 0 -4 -8 3 -8 -11 -27 -32 -45 -126 -108
-299 -282 -388 -390 -128 -157 -266 -289 -531 -509 -66 -55 -167 -149 -224
-209 -57 -60 -110 -108 -118 -106 -7 2 -13 -4 -13 -13 0 -18 -53 -80 -264
-309 -76 -83 -150 -168 -164 -189 l-25 -38 -24 23 -25 23 18 -31 c18 -32 18
-32 -8 -70 -165 -245 -207 -401 -209 -767 0 -174 9 -220 92 -445 53 -144 75
-224 109 -396 12 -60 44 -177 70 -261 27 -84 65 -221 85 -306 19 -85 60 -244
90 -354 30 -110 72 -282 95 -381 60 -268 128 -453 195 -533 63 -75 322 -334
361 -361 62 -44 190 -105 284 -135 84 -28 372 -104 400 -106 39 -3 364 -73
435 -93 44 -13 132 -45 195 -70 65 -26 196 -66 300 -92 178 -43 552 -161 558
-176 2 -4 9 -5 16 -2 7 3 84 -12 172 -32 226 -52 371 -50 664 7 137 28 176 44
355 147 203 116 246 146 350 243 50 46 168 151 262 232 184 158 302 279 406
417 35 47 169 192 297 323 197 201 237 237 261 237 16 0 29 5 29 10 0 6 -8 10
-17 10 -10 0 73 91 198 218 211 213 279 292 332 382 44 76 85 191 122 341 62
246 59 404 -11 684 -38 150 -62 228 -112 355 -63 164 -88 251 -112 402 -21
133 -43 219 -190 743 -44 154 -91 327 -105 385 -99 394 -132 466 -298 637
l-92 95 96 -3 c89 -3 99 -1 142 25 26 15 47 32 47 37 0 6 -14 -1 -32 -16 -26
-22 -37 -25 -62 -20 -17 4 -70 7 -117 6 l-86 -2 -84 67 c-105 84 -186 123
-364 174 -77 23 -191 61 -252 86 -62 24 -141 51 -175 59 -35 8 -69 23 -78 33
-21 26 -50 36 -50 17 0 -20 3 -20 -188 26 -254 61 -338 77 -469 88 -106 10
-208 27 -281 47 -12 4 -25 17 -28 30 -7 27 -50 59 -59 44 -4 -6 -3 -19 0 -30
6 -18 -3 -16 -77 17 -108 47 -308 116 -428 147 -110 28 -247 38 -375 26z
m2390 -1045 c81 -47 84 -54 82 -200 -2 -112 -5 -136 -24 -171 -13 -25 -33 -45
-50 -52 -15 -6 -87 -13 -159 -16 -267 -12 -538 -78 -884 -216 -253 -101 -274
-114 -207 -124 17 -3 102 -12 187 -21 286 -29 523 -78 636 -132 69 -32 168
-129 185 -181 19 -57 -7 -313 -41 -409 -20 -54 -280 -218 -497 -312 -109 -48
-393 -141 -648 -215 -203 -58 -798 -216 -815 -216 -24 0 -7 22 30 36 53 21 55
45 3 33 -81 -18 -121 -3 -57 21 27 10 33 30 9 30 -18 0 -20 16 -3 26 7 5 -1
12 -23 19 -25 9 -33 17 -31 31 2 20 -45 54 -75 54 -10 0 -13 6 -9 16 6 16 -15
44 -34 44 -6 0 -10 8 -8 17 7 35 311 145 763 277 170 49 351 111 605 206 124
46 292 123 294 135 0 6 -60 15 -144 22 -523 45 -792 101 -831 174 -7 13 -29
41 -50 61 -54 53 -71 99 -72 188 0 90 21 148 87 248 41 62 58 77 163 144 490
313 946 479 1398 508 141 8 167 6 220 -25z m-1974 -19 c20 -7 57 -30 83 -51
42 -36 46 -43 46 -83 0 -81 -129 -385 -366 -862 -176 -353 -316 -566 -581
-877 -151 -178 -273 -260 -470 -319 -119 -35 -329 -45 -418 -20 -117 34 -208
115 -278 250 l-32 61 1 155 c1 118 6 181 23 264 43 208 121 426 152 426 21 0
88 -73 101 -111 11 -31 28 -39 28 -14 0 8 7 15 15 15 11 0 15 -11 15 -41 0
-24 4 -38 10 -34 6 3 10 17 10 30 0 31 16 40 29 18 9 -16 11 -16 25 -3 9 9 26
43 39 75 17 45 29 61 45 63 16 2 22 -2 22 -15 0 -10 5 -25 10 -33 9 -13 11
-13 19 0 6 8 13 11 17 7 4 -3 -8 -143 -26 -309 -35 -319 -35 -413 -3 -425 23
-9 92 31 149 85 197 189 470 610 684 1058 90 188 216 483 224 525 12 69 90
125 219 159 84 22 158 24 208 6z m333 -2391 c47 -20 136 -102 136 -125 0 -26
-436 -1142 -481 -1233 -61 -119 -144 -332 -215 -546 -35 -107 -71 -203 -80
-213 -20 -22 -43 -23 -69 -4 -12 8 -33 12 -56 9 -24 -4 -45 0 -63 12 -20 13
-41 16 -87 13 l-61 -4 -45 53 -46 53 6 63 c3 36 20 102 42 157 l36 96 -144
346 c-80 191 -166 410 -192 487 -26 78 -50 141 -54 141 -8 0 -407 -829 -477
-990 -48 -110 -85 -245 -90 -328 -5 -83 -25 -132 -54 -132 -10 0 -45 16 -77
35 -51 30 -65 34 -113 30 -30 -2 -57 -4 -60 -6 -3 -1 -14 -2 -25 -3 -22 -1
-32 10 -89 93 -42 62 -42 83 -4 216 43 150 208 525 391 890 55 110 164 337
243 505 120 257 147 308 173 323 37 23 152 44 286 52 98 7 101 7 142 -21 67
-46 84 -75 89 -151 16 -201 101 -468 275 -858 l22 -49 48 97 c83 165 170 396
270 717 28 91 60 181 71 201 20 37 64 69 92 69 9 0 16 4 16 9 0 16 31 20 120
16 49 -2 101 -10 124 -20z m1467 -54 c35 -35 36 -41 7 -42 -18 -1 -16 -3 10
-10 35 -11 43 -29 12 -29 -11 0 -20 -4 -20 -8 0 -14 23 -32 42 -32 26 0 22
-18 -4 -23 -13 -2 9 -5 47 -6 58 -1 79 -6 120 -31 28 -16 46 -30 40 -31 -5 -1
3 -4 19 -8 35 -7 44 -26 19 -39 -30 -16 -158 -40 -329 -61 -169 -21 -263 -45
-452 -114 l-117 -43 -63 -123 -64 -124 34 6 c18 4 98 12 176 18 123 11 145 10
153 -2 13 -21 11 -29 -7 -29 -8 0 -12 -4 -9 -10 3 -5 21 -10 40 -10 45 0 52
-15 14 -30 -21 -9 -26 -15 -18 -21 9 -5 10 -11 2 -21 -16 -20 2 -56 41 -79 25
-15 33 -25 29 -39 -4 -16 0 -20 21 -20 19 0 26 -5 26 -19 0 -24 -129 -62 -445
-131 -126 -28 -245 -57 -263 -65 -20 -9 -46 -36 -68 -72 -36 -56 -125 -235
-120 -240 1 -2 178 26 391 62 260 43 391 61 396 54 3 -6 17 -9 30 -8 25 3 94
-55 84 -71 -2 -4 -22 -16 -42 -26 l-38 -19 38 -3 c41 -4 52 -22 12 -22 -15 0
-25 -6 -25 -14 0 -17 22 -26 66 -26 42 0 94 -25 94 -46 0 -8 11 -19 25 -24 36
-14 31 -25 -17 -43 -115 -42 -307 -86 -683 -157 -253 -47 -348 -70 -458 -107
-81 -28 -104 -44 -140 -102 -12 -19 -37 -43 -55 -54 l-32 -19 -36 31 c-30 27
-41 31 -70 25 -24 -4 -40 -2 -52 8 -22 20 -78 38 -114 38 -25 0 -28 3 -22 25
7 27 -4 33 -24 13 -23 -23 -24 21 -1 89 60 182 303 736 605 1380 101 215 184
400 184 411 0 31 44 70 96 84 38 11 99 13 264 8 187 -4 378 5 608 29 8 0 27
-12 43 -28z"/>
<path d="M3190 3760 c0 -5 5 -10 11 -10 5 0 7 5 4 10 -3 6 -8 10 -11 10 -2 0
-4 -4 -4 -10z"/>
<path d="M2092 6568 c6 -18 28 -21 28 -4 0 9 -7 16 -16 16 -9 0 -14 -5 -12
-12z"/>
<path d="M4997 6503 c-14 -13 -7 -42 8 -37 8 4 15 15 15 25 0 19 -11 25 -23
12z"/>
<path d="M6280 6466 c0 -9 5 -16 10 -16 6 0 10 4 10 9 0 6 -4 13 -10 16 -5 3
-10 -1 -10 -9z"/>
<path d="M1950 6450 c0 -5 5 -10 11 -10 5 0 7 5 4 10 -3 6 -8 10 -11 10 -2 0
-4 -4 -4 -10z"/>
<path d="M6055 6380 c3 -5 8 -10 11 -10 2 0 4 5 4 10 0 6 -5 10 -11 10 -5 0
-7 -4 -4 -10z"/>
<path d="M5770 6220 c0 -5 9 -10 20 -10 11 0 20 5 20 10 0 6 -9 10 -20 10 -11
0 -20 -4 -20 -10z"/>
<path d="M1528 5933 c7 -3 16 -2 19 1 4 3 -2 6 -13 5 -11 0 -14 -3 -6 -6z"/>
<path d="M1296 5795 c4 -8 8 -15 10 -15 2 0 4 7 4 15 0 8 -4 15 -10 15 -5 0
-7 -7 -4 -15z"/>
<path d="M946 5675 c-3 -8 -1 -15 4 -15 6 0 10 7 10 15 0 8 -2 15 -4 15 -2 0
-6 -7 -10 -15z"/>
<path d="M980 5651 c0 -5 7 -11 15 -15 9 -3 15 0 15 9 0 8 -7 15 -15 15 -8 0
-15 -4 -15 -9z"/>
<path d="M6470 5456 c0 -8 4 -17 9 -20 10 -7 23 19 14 28 -11 11 -23 6 -23 -8z"/>
<path d="M810 5340 c20 -13 40 -13 40 0 0 6 -12 10 -27 10 -22 0 -25 -2 -13
-10z"/>
<path d="M585 5260 c3 -5 11 -10 16 -10 6 0 7 5 4 10 -3 6 -11 10 -16 10 -6 0
-7 -4 -4 -10z"/>
<path d="M695 5211 c-8 -15 3 -31 21 -31 9 0 14 7 12 17 -4 20 -24 28 -33 14z"/>
<path d="M431 4914 c0 -11 3 -14 6 -6 3 7 2 16 -1 19 -3 4 -6 -2 -5 -13z"/>
<path d="M370 4886 c0 -14 4 -27 9 -30 12 -8 22 20 15 39 -9 23 -24 18 -24 -9z"/>
<path d="M270 4650 c0 -6 7 -10 15 -10 8 0 15 2 15 4 0 2 -7 6 -15 10 -8 3
-15 1 -15 -4z"/>
<path d="M230 3017 c-7 -18 -16 -36 -18 -42 -3 -5 6 -2 20 7 22 15 25 15 36 0
7 -10 5 1 -3 22 -20 51 -19 51 -35 13z"/>
<path d="M220 2914 c0 -8 5 -12 10 -9 6 3 10 10 10 16 0 5 -4 9 -10 9 -5 0
-10 -7 -10 -16z"/>
<path d="M290 2905 c0 -9 5 -15 11 -13 6 2 11 8 11 13 0 5 -5 11 -11 13 -6 2
-11 -4 -11 -13z"/>
<path d="M6590 2060 c0 -5 7 -10 15 -10 8 0 15 5 15 10 0 6 -7 10 -15 10 -8 0
-15 -4 -15 -10z"/>
<path d="M6233 1833 c-15 -6 -17 -33 -3 -33 5 0 24 9 42 20 l33 20 -30 -1
c-16 0 -36 -3 -42 -6z"/>
<path d="M700 1310 c-12 -8 -9 -10 12 -10 15 0 30 5 33 10 8 13 -25 13 -45 0z"/>
<path d="M6291 924 c0 -11 3 -14 6 -6 3 7 2 16 -1 19 -3 4 -6 -2 -5 -13z"/>
<path d="M6310 910 c0 -5 7 -10 15 -10 8 0 15 -4 15 -8 0 -4 14 -16 31 -26
l32 -19 -7 27 c-4 15 -2 26 4 26 5 0 10 4 10 9 0 5 -14 4 -32 -2 -24 -9 -32
-9 -35 1 -5 14 -33 16 -33 2z"/>
<path d="M1070 881 c0 -6 5 -13 10 -16 6 -3 10 1 10 9 0 9 -4 16 -10 16 -5 0
-10 -4 -10 -9z"/>
<path d="M990 821 c0 -5 5 -13 10 -16 6 -3 10 -2 10 4 0 5 -4 13 -10 16 -5 3
-10 2 -10 -4z"/>
<path d="M1542 629 c2 -7 10 -15 17 -17 8 -3 12 1 9 9 -2 7 -10 15 -17 17 -8
3 -12 -1 -9 -9z"/>
<path d="M1708 613 c7 -3 16 -2 19 1 4 3 -2 6 -13 5 -11 0 -14 -3 -6 -6z"/>
<path d="M4997 473 c-13 -13 -7 -32 8 -27 8 4 15 12 15 20 0 15 -12 19 -23 7z"/>
<path d="M5358 473 c7 -3 16 -2 19 1 4 3 -2 6 -13 5 -11 0 -14 -3 -6 -6z"/>
<path d="M5508 399 c-27 -15 -21 -26 12 -21 17 2 30 10 30 18 0 16 -18 18 -42
3z"/>
<path d="M4390 179 c0 -5 5 -7 10 -4 6 3 10 8 10 11 0 2 -4 4 -10 4 -5 0 -10
-5 -10 -11z"/>
<path d="M3347 173 c-4 -3 -7 -11 -7 -17 0 -6 5 -5 12 2 6 6 9 14 7 17 -3 3
-9 2 -12 -2z"/>
</g>
</svg>
